<?xml version="1.0" encoding="UTF-8"?>
<svg width="128pt" height="128pt" version="1.1" viewBox="0 0 128 128" xmlns="http://www.w3.org/2000/svg">
 <g fill="#541212">
  <path d="m85.652 102.84h35.949l-0.42187-1.9609c-1.832-8.5586-3.9336-11.449-11.238-15.484-3.5547-1.9609-9.3008-4.5078-14.211-5.5078v-7.8984c3.207-3.6758 5.6406-9.1797 5.6406-13.453v-5.457c0-7.8828-5.875-14.457-13.594-15.551l1.5742-5.2344-1.9336-0.21484c-9.1562-1.0352-17.273 6.5391-17.273 15.617v10.844c0 4.2695 2.4336 9.7734 5.6406 13.453v8.0469c-3.3633 0.72656-7.5312 2.125-11.273 3.8086l0.26172 0.58594c-3.5117-1.7656-8.2227-3.6992-12.363-4.543v-8.0117c3.1562-3.6758 5.5391-9.1133 5.5391-13.34v-4.5h-3.2461v4.5c0 4.3711-3.3984 10.855-6.9922 13.34-1.2383 0.85547-2.8984 1.2422-5.3672 1.25-2.4805-0.011719-4.1406-0.39844-5.3789-1.25-3.5938-2.4883-6.9961-8.9727-6.9961-13.34v-4.5h-3.2461v4.5c0 4.3164 2.4883 9.8906 5.7461 13.566v7.9297c-5.0664 1.0938-11.035 3.4961-14.418 5.3633-7.3047 4.0352-9.4062 6.9297-11.238 15.484l-0.41406 1.957h71.887l-0.42188-1.9609c-1.7344-8.1133-3.7266-11.137-10.156-14.871 2.4062-0.98438 4.8945-1.8359 7.1289-2.4219l10.816 9.0977 10.906-9.1758-0.125-0.14844c4.2227 1.0781 8.9102 3.207 11.93 4.875 5.8789 3.2461 7.6797 5.2891 9.1836 11.359h-31.895zm-43.301-26.465c2.9648-0.011719 5.0781-0.52734 6.8203-1.6094v7.9336l-6.8281 5.7461-6.6172-5.5703v-7.9961c1.7031 0.99609 3.7656 1.4805 6.625 1.4961zm31.891 23.219h-63.797c1.5078-6.0742 3.3086-8.1172 9.1836-11.359 2.7461-1.5156 7.5586-3.5039 11.898-4.6484l10.816 9.1016 10.906-9.1797-0.125-0.14844c4.2227 1.0781 8.9141 3.207 11.93 4.875 5.8789 3.2461 7.6797 5.2891 9.1875 11.359zm-0.84766-51.902c0-6.5312 5.2852-12.086 11.684-12.449l-0.98828 3.2773-0.50391 2.0703 2.1641 0.015624c6.8242 0.050782 12.379 5.6445 12.379 12.469v5.457c0 4.3711-3.3984 10.852-6.9922 13.34-1.2383 0.85547-2.8945 1.2422-5.375 1.25-2.4805-0.011719-4.1328-0.39844-5.3711-1.25-3.5977-2.4883-6.9961-8.9727-6.9961-13.34zm5.6406 35.184v-8.0508c1.7227 1.0391 3.8125 1.5391 6.7188 1.5508h0.015625c2.9062-0.011719 4.9961-0.51172 6.7188-1.5508v7.875l-6.832 5.7461z"/>
  <path d="m63.25 47.984h-2.8711l-0.007812-3.0586c-0.8125-7.2305-5.8672-13.234-12.758-15.32v-1.3398l-0.15625-0.33203c-1.0391-2.1875-3.7031-2.7734-5.1133-2.7734s-4.0742 0.58594-5.1133 2.7734l-0.15625 0.33203v1.3359c-6.8906 2.082-11.949 8.1016-12.77 15.5v2.8789h-2.8672v3.2461h41.812zm-26.176-14.934v4.582h3.2461v-8.5273c0.40625-0.42188 1.3164-0.69922 2.0234-0.69922s1.6172 0.27734 2.0234 0.69922v8.5234h3.2461v-4.582c5.1641 1.9492 8.9023 6.6172 9.5234 12.055v2.7539l-29.59 0.007812-0.007813-2.5742c0.62891-5.5977 4.3672-10.285 9.5352-12.238z"/>
 </g>
</svg>
