<?xml version="1.0" encoding="UTF-8"?>
<svg width="128pt" height="128pt" version="1.1" viewBox="10 3 128 128" xmlns="http://www.w3.org/2000/svg">
 <path d="m118.07 116.87-8.4922-21.848c1.8281-0.53516 3.4258-1.7578 4.3984-3.4414 1.0742-1.8633 1.2812-4.1055 0.61328-6.1172 1.5859-1.4102 2.5273-3.4531 2.5273-5.6055s-0.94141-4.1992-2.5273-5.6055c0.66797-2.0117 0.46094-4.2539-0.61328-6.1172-1.0742-1.8633-2.9141-3.1641-4.9922-3.5938-0.42969-2.0742-1.7305-3.9141-3.5938-4.9922-1.8633-1.0742-4.1055-1.2812-6.1172-0.61328-1.4062-1.5859-3.4531-2.5273-5.6055-2.5273-2.1523 0-4.1992 0.94141-5.6055 2.5273-2.0117-0.66797-4.2539-0.46094-6.1172 0.61328-1.8633 1.0742-3.1641 2.9141-3.5938 4.9922-2.0742 0.42969-3.9141 1.7305-4.9922 3.5938-1.0742 1.8633-1.2812 4.1055-0.61328 6.1172-1.5859 1.4062-2.5273 3.4531-2.5273 5.6055s0.94141 4.1992 2.5273 5.6055c-0.66797 2.0117-0.46094 4.2539 0.61328 6.1172 0.97266 1.6836 2.5664 2.9062 4.3984 3.4414l-8.4922 21.848c-0.23828 0.60938-0.066407 1.3008 0.42188 1.7344 0.49219 0.43359 1.1992 0.51172 1.7734 0.19922l7.7812-4.2227 2.8867 8.3711c0.21484 0.61719 0.78906 1.0391 1.4414 1.0508h0.03125c0.64062 0 1.2188-0.39453 1.4531-0.99219l7.6797-19.766c0.30859 0.039062 0.61719 0.0625 0.92969 0.0625s0.625-0.023438 0.92969-0.0625l7.6797 19.766c0.24219 0.59375 0.82031 0.98828 1.4609 0.98828h0.03125c0.65234-0.011719 1.2305-0.43359 1.4414-1.0508l2.8867-8.3711 7.7812 4.2227c0.57422 0.3125 1.2812 0.23047 1.7734-0.19922 0.49219-0.42969 0.66016-1.1211 0.42188-1.7305zm-34.379 1.043-2.1016-6.0898c-0.14844-0.43359-0.48047-0.77734-0.90625-0.94531-0.42578-0.16406-0.90625-0.13672-1.3086 0.082032l-5.6602 3.0742 6.1094-15.715c0.57813 0.73438 1.293 1.3633 2.125 1.8438 1.8633 1.0742 4.1055 1.2812 6.1172 0.61328 0.50391 0.56641 1.0898 1.0469 1.7305 1.4375zm6.2227-19.859c-0.28906-0.48828-0.80859-0.75781-1.3398-0.75781-0.25781 0-0.51562 0.0625-0.75781 0.19922-1.3594 0.75781-2.9727 0.74219-4.3164-0.03125-1.3438-0.77734-2.1602-2.168-2.1836-3.7227-0.011719-0.83984-0.69141-1.5195-1.5352-1.5352-1.5547-0.023437-2.9453-0.83984-3.7227-2.1836-0.77734-1.3438-0.78906-2.957-0.03125-4.3164 0.41016-0.73438 0.16016-1.6641-0.5625-2.0938-1.3359-0.79688-2.1289-2.2031-2.1289-3.7539s0.79688-2.957 2.1289-3.7539c0.72266-0.43359 0.96875-1.3594 0.5625-2.0938-0.75781-1.3594-0.74219-2.9727 0.03125-4.3164 0.77734-1.3438 2.168-2.1602 3.7227-2.1875 0.83984-0.011718 1.5195-0.69141 1.5352-1.5352 0.023438-1.5547 0.83984-2.9453 2.1836-3.7227s2.957-0.78906 4.3164-0.03125c0.73438 0.41016 1.6641 0.16016 2.0938-0.5625 0.79688-1.3359 2.2031-2.1289 3.7539-2.1289 1.5508 0 2.957 0.79688 3.7539 2.1289 0.43359 0.72266 1.3594 0.96875 2.0938 0.5625 1.3594-0.75781 2.9727-0.74609 4.3164 0.03125s2.1602 2.168 2.1836 3.7227c0.011719 0.83984 0.69141 1.5195 1.5352 1.5352 1.5547 0.023438 2.9453 0.83984 3.7227 2.1875 0.77734 1.3438 0.78906 2.957 0.03125 4.3164-0.41016 0.73438-0.16016 1.6641 0.5625 2.0938 1.3359 0.79688 2.1289 2.2031 2.1289 3.7539 0 1.5547-0.79688 2.957-2.1289 3.7539-0.72266 0.43359-0.96875 1.3594-0.5625 2.0938 0.75781 1.3594 0.74219 2.9727-0.03125 4.3164-0.77734 1.3438-2.168 2.1602-3.7227 2.1836-0.83984 0.011719-1.5195 0.69141-1.5352 1.5352-0.023437 1.5547-0.83984 2.9453-2.1836 3.7227s-2.957 0.78906-4.3164 0.03125c-0.73437-0.41016-1.6641-0.16016-2.0938 0.5625-0.79687 1.3359-2.2031 2.1289-3.7539 2.1289-1.5469-0.003906-2.9492-0.79688-3.75-2.1328zm18.051 12.91c-0.40234-0.21875-0.88281-0.25-1.3086-0.082032-0.42578 0.16797-0.75781 0.51172-0.90625 0.94531l-2.1016 6.0898-6.1016-15.703c0.64062-0.38672 1.2266-0.87109 1.7305-1.4375 2.0117 0.66797 4.2578 0.46094 6.1172-0.61328 0.82812-0.48047 1.543-1.1094 2.1211-1.8438l6.1094 15.715zm-3.0352-34.602c-0.19922-0.62109-0.76562-1.0508-1.4141-1.082l-6.2617-0.27734-2.1211-5.8008c-0.22266-0.61328-0.80469-1.0195-1.457-1.0234h-0.007813c-0.64844 0-1.2305 0.40234-1.4609 1.0117l-2.1992 5.8672-6.1719 0.22266c-0.65234 0.023438-1.2188 0.44922-1.4258 1.0703-0.20312 0.62109 0 1.3008 0.50781 1.707l4.9023 3.9023-1.6953 5.9414c-0.17969 0.625 0.050781 1.2969 0.57812 1.6836 0.27344 0.19922 0.59766 0.30078 0.92188 0.30078 0.29688 0 0.59766-0.085938 0.85938-0.25781l5.2266-3.4531 5.125 3.4492c0.54297 0.36328 1.2539 0.35156 1.7812-0.027344 0.53125-0.38281 0.76562-1.0508 0.58984-1.6797l-1.6719-6.0391 4.8633-3.8086c0.51953-0.40625 0.73047-1.0859 0.53125-1.707zm-8.1289 3.6992c-0.49609 0.38672-0.71094 1.0352-0.54297 1.6445l0.82422 2.9805-2.4922-1.6758c-0.52344-0.35156-1.2031-0.35547-1.7305-0.007813l-2.5781 1.707 0.82422-2.8906c0.17188-0.60547-0.035156-1.2539-0.52734-1.6484l-2.4219-1.9258 3.0039-0.10938c0.62891-0.023438 1.1836-0.42188 1.4023-1.0117l1.0859-2.8984 1.0312 2.8242c0.21484 0.58984 0.76562 0.99609 1.3945 1.0195l3.0898 0.13672zm13.5-0.20703c0-9.168-7.4609-16.629-16.629-16.629s-16.629 7.4609-16.629 16.629 7.4609 16.629 16.629 16.629 16.629-7.4609 16.629-16.629zm-16.629 13.512c-7.4492 0-13.512-6.0625-13.512-13.512s6.0625-13.512 13.512-13.512 13.512 6.0625 13.512 13.512c0 7.4531-6.0625 13.512-13.512 13.512zm-25.504 18.043c0 0.85938-0.69922 1.5586-1.5586 1.5586h-53.281c-1.9297 0-3.4961-1.5664-3.4961-3.4961v-101.98c0-1.9297 1.5664-3.4961 3.4961-3.4961h81.418c1.9297 0 3.4961 1.5664 3.4961 3.4961v46.559c0 0.85937-0.69922 1.5586-1.5586 1.5586-0.86328 0-1.5586-0.69922-1.5586-1.5586v-46.559c0-0.20703-0.17188-0.37891-0.37891-0.37891h-81.418c-0.20703 0-0.37891 0.17187-0.37891 0.37891v101.98c0 0.20703 0.17188 0.37891 0.37891 0.37891h53.285c0.85547-0.003907 1.5547 0.69531 1.5547 1.5547zm0-6.0234c0 0.85938-0.69922 1.5586-1.5586 1.5586h-45.285c-0.85937 0-1.5586-0.69922-1.5586-1.5586 0-1.2969-1.0547-2.3516-2.3516-2.3516-0.85938 0-1.5586-0.69922-1.5586-1.5586l-0.003906-85.984c0-0.85938 0.69922-1.5586 1.5586-1.5586 1.2969 0 2.3516-1.0547 2.3516-2.3516 0-0.85938 0.69922-1.5586 1.5586-1.5586h65.426c0.85937 0 1.5586 0.69922 1.5586 1.5586 0 1.2969 1.0547 2.3516 2.3516 2.3516 0.85938 0 1.5586 0.69922 1.5586 1.5586l0.003906 38.562c0 0.85937-0.69922 1.5586-1.5586 1.5586-0.86328 0-1.5586-0.69922-1.5586-1.5586v-37.23c-1.7656-0.52344-3.1602-1.9219-3.6836-3.6836h-62.762c-0.52344 1.7656-1.9219 3.1602-3.6836 3.6836v83.32c1.7656 0.52344 3.1602 1.9219 3.6836 3.6836h43.953c0.85938 0 1.5586 0.69922 1.5586 1.5586zm12.625-78.793c0 0.85938-0.69922 1.5586-1.5586 1.5586h-50.398c-0.85938 0-1.5586-0.69922-1.5586-1.5586s0.69922-1.5586 1.5586-1.5586h50.402c0.85938 0 1.5547 0.69922 1.5547 1.5586zm0 12.684c0 0.85938-0.69922 1.5586-1.5586 1.5586h-50.398c-0.85938 0-1.5586-0.69922-1.5586-1.5586s0.69922-1.5586 1.5586-1.5586h50.402c0.85938 0 1.5547 0.69531 1.5547 1.5586zm-1.5586 14.238h-50.398c-0.85938 0-1.5586-0.69922-1.5586-1.5586 0-0.86328 0.69922-1.5586 1.5586-1.5586h50.402c0.85938 0 1.5586 0.69922 1.5586 1.5586-0.003907 0.86328-0.69922 1.5586-1.5625 1.5586zm-51.957 11.121c0-0.85938 0.69922-1.5586 1.5586-1.5586h35.527c0.85938 0 1.5586 0.69922 1.5586 1.5586 0 0.86328-0.69922 1.5586-1.5586 1.5586l-35.527 0.003907c-0.86328 0-1.5586-0.69922-1.5586-1.5625zm0 12.684c0-0.85937 0.69922-1.5586 1.5586-1.5586h35.527c0.85938 0 1.5586 0.69922 1.5586 1.5586 0 0.85938-0.69922 1.5586-1.5586 1.5586h-35.527c-0.86328 0-1.5586-0.69922-1.5586-1.5586zm5.8242 20.055c0-2.1211 1.0352-4.9531 2.9492-6.0234 1.1094-0.62109 2.3398-0.58203 3.4648 0.11328 0.91016 0.5625 1.6523 1.6484 2.3438 3.0156 1.0273-3.6797 3.2461-7.4961 6.3086-7.4961 2.707 0 5.0078 2.1719 6.1719 5.4336 0.92578-0.74219 2.0664-1.1836 3.2969-1.1836 2.5938 0 4.7812 1.9492 5.4102 4.5859h6.5977c0.85938 0 1.5586 0.69922 1.5586 1.5586 0 0.86328-0.69922 1.5586-1.5586 1.5586h-7.9727c-0.85938 0-1.5586-0.69922-1.5586-1.5586 0-1.668-1.1133-3.0234-2.4805-3.0234-1.3672 0-2.4766 1.3555-2.4766 3.0234 0 0.85938-0.69922 1.5586-1.5586 1.5586s-1.5586-0.69922-1.5586-1.5586c0-4.2852-2.043-7.2734-3.8789-7.2734-1.457 0-3.832 4.7734-3.832 8.543 0 0.65625 0 2.1953-1.4102 2.4805-0.12109 0.023438-0.23828 0.035156-0.35156 0.035156-0.70703 0-1.2969-0.46484-1.7578-1.3906-0.19141-0.38672-0.40625-0.89063-0.65234-1.4727-0.47266-1.1211-1.582-3.7422-2.2891-4.1758-0.18359-0.11328-0.22656-0.089844-0.30859-0.042969-0.61328 0.33984-1.3516 1.8906-1.3516 3.3008 0 0.85938-0.69922 1.5586-1.5586 1.5586-0.85156-0.007812-1.5469-0.70703-1.5469-1.5664z" fill="#541212"/>
</svg>
