<?xml version="1.0" encoding="UTF-8"?>
<svg width="128pt" height="128pt" version="1.1" viewBox="0 0 128 128" xmlns="http://www.w3.org/2000/svg">
 <g fill="#531212">
  <path d="m64 12.801c-28.289 0-51.199 20.609-51.199 45.949 0 12.289 5.375 23.812 14.977 32.387-0.12891 0.12891-0.12891 0.38672-0.25391 0.51172-3.3281 5.7617-7.9336 11.906-13.824 18.051-0.76953 0.76953-1.0234 2.0508-0.76953 3.1992 0.38672 1.4102 1.6641 2.3047 3.0703 2.3047 0.25391 0 0.64062 0 0.89453-0.12891 9.2148-2.8164 16.641-5.8906 23.551-9.8555 1.9219-1.0234 3.7109-2.3047 5.5039-3.4531 5.7617 1.9219 11.773 2.9453 17.922 2.9453 28.289 0 51.199-20.609 51.199-45.949 0.13672-25.344-22.773-45.953-51.066-45.953zm0 88.574c-6.1445 0-12.031-1.0234-17.664-3.0703-0.51172-0.12891-1.0234-0.12891-1.5352 0.25391-1.9219 1.4102-3.9688 2.6914-6.0156 3.8398-6.6562 3.8398-13.949 6.7852-22.785 9.6016 6.0156-6.3984 10.75-12.672 14.211-18.691 0.38672-0.64062 0.64062-1.1484 1.0234-1.7891 0.38672-0.64062 0.25391-1.5352-0.38672-2.0508-9.6016-8.0664-14.852-19.07-14.852-30.852 0-23.551 21.504-42.625 47.871-42.625 26.371 0 47.871 19.07 47.871 42.625 0.12891 23.684-21.371 42.754-47.738 42.754z"/>
  <path d="m41.73 51.969c-3.7109 0-6.7852 3.0703-6.7852 6.7852 0 3.7109 3.0703 6.7852 6.7852 6.7852 3.7109 0 6.7852-3.0703 6.7852-6.7852-0.003906-3.8438-3.0742-6.7852-6.7852-6.7852zm0 10.238c-1.9219 0-3.5859-1.5352-3.5859-3.5859 0-1.9219 1.5352-3.5859 3.5859-3.5859 1.9219 0 3.5859 1.5352 3.5859 3.5859-0.12891 2.0469-1.6641 3.5859-3.5859 3.5859z"/>
  <path d="m64 51.969c-3.7109 0-6.7852 3.0703-6.7852 6.7852 0 3.7109 3.0703 6.7852 6.7852 6.7852 3.7109 0 6.7852-3.0703 6.7852-6.7852 0-3.8438-3.0742-6.7852-6.7852-6.7852zm0 10.238c-1.9219 0-3.5859-1.5352-3.5859-3.5859 0-1.9219 1.5352-3.5859 3.5859-3.5859s3.5859 1.5352 3.5859 3.5859c0 2.0469-1.6641 3.5859-3.5859 3.5859z"/>
  <path d="m86.27 51.969c-3.7109 0-6.7852 3.0703-6.7852 6.7852 0 3.7109 3.0703 6.7852 6.7852 6.7852 3.7109 0 6.7852-3.0703 6.7852-6.7852 0.12891-3.8438-2.9453-6.7852-6.7852-6.7852zm0 10.238c-1.9219 0-3.5859-1.5352-3.5859-3.5859 0-1.9219 1.5352-3.5859 3.5859-3.5859 1.9219 0 3.5859 1.5352 3.5859 3.5859 0 2.0469-1.5352 3.5859-3.5859 3.5859z"/>
 </g>
</svg>
