<?xml version="1.0" encoding="UTF-8"?>
<svg width="128pt" height="128pt" version="1.1" viewBox="0 0 128 128" xmlns="http://www.w3.org/2000/svg">
 <g fill="#541212">
  <path d="m97.281 70.656h-10.754c-1.5352 0-2.5586-1.0234-2.5586-2.5586s1.0234-2.5586 2.5586-2.5586l10.754-0.003906c2.5586 0 5.1211-0.51172 7.6797-1.0234 1.5352-0.51172 2.5586-1.0234 3.5859-1.5352 1.0234-0.51172 1.5352-2.0469 1.5352-3.0703s-0.51172-2.0469-1.0234-3.0703c-2.5586-3.0703-7.168-5.1211-13.312-7.168-0.51172 0-0.51172-0.51172-1.0234-0.51172-1.5352-1.0234-2.5586-2.5586-3.0703-4.0977 0-2.0469 1.0234-3.5859 2.5586-4.6094 3.5859-5.1211 5.6328-9.7266 5.1211-13.824-0.51172-2.5586-1.5352-4.6094-3.5859-6.1445-3.5859-2.5586-8.7031-2.5586-11.777 0-2.0469 1.5352-3.0703 3.5859-3.5859 6.1445-0.51172 4.0977 1.5352 8.7031 5.1211 13.824 1.0234 1.0234 0.51172 2.5586-0.51172 3.5859-1.0234 1.0234-2.5586 0.51172-3.5859-0.51172-5.1211-6.1445-7.168-12.289-6.1445-17.922 0.51172-3.5859 2.5586-7.168 5.6328-9.2148 5.1211-4.0977 12.801-4.0977 17.922 0 3.0703 2.5586 5.1211 5.6328 5.6328 9.2148 0.51172 5.6328-1.5352 11.777-6.1445 17.922-0.51172 0.51172-0.51172 1.0234-1.0234 1.0234 0 0 0.51172 0 0.51172 0.51172 6.6562 2.0469 11.777 5.1211 14.848 8.7031 1.5352 1.5352 2.5586 4.0977 2.5586 6.6562 0 3.0703-1.5352 5.6328-3.5859 7.168-1.5352 1.0234-3.0703 2.0469-5.1211 2.5586-3.0664 0-6.1406 0.51172-9.2109 0.51172z"/>
  <path d="m41.473 70.656h-10.754c-3.5859 0-6.6562-0.51172-9.2148-1.5352-2.0469-0.51172-3.5859-1.5352-5.1211-2.5586-2.0469-1.5352-3.5859-4.6094-3.5859-7.168 0-2.5586 1.0234-4.6094 2.5586-6.6562 3.5898-3.5859 8.707-6.1445 15.363-8.1953 0 0 0.51172 0 0.51172-0.51172 0 0-0.51172-0.51172-0.51172-1.0234-5.1172-6.1445-7.6797-12.801-6.6562-17.918 0.51172-3.5859 2.5586-7.168 5.6328-9.2148 5.1211-4.0977 12.801-4.0977 17.922 0 3.0703 2.5586 5.1211 5.6328 5.6328 9.2148 0.51172 5.6328-1.5352 11.777-6.1445 17.922-1.0273 1.0195-2.5625 1.0195-3.5859 0.50781-1.0234-1.0234-1.5352-2.5586-0.51172-3.582 4.0977-5.1211 5.6328-10.238 5.1211-13.824 0-2.5625-1.5352-4.6094-3.5859-6.1445-3.582-2.5625-8.1914-2.5625-11.773 0-2.0508 1.5352-3.5859 3.582-3.5859 5.6328-0.51172 4.0977 1.5352 8.7031 5.1211 13.824 1.0234 1.5352 2.5586 3.0703 2.0469 4.6055 0 2.0469-1.5352 3.0703-3.0703 4.0977 0 0-0.51172 0.51172-1.0234 0.51172-5.6328 2.5586-9.7305 4.6055-12.801 7.6797-0.51172 1.0234-1.0234 2.0469-1.0234 3.0703 0 1.5352 0.51172 2.5586 1.5352 3.0703 1.0234 0.51172 2.0469 1.0234 3.5859 1.5352 2.0469 1.0273 4.6055 1.5391 7.1641 1.5391h10.754c1.5352 0 2.5586 1.0234 2.5586 2.5586 0 1.5391-1.0234 2.5625-2.5586 2.5625z"/>
  <path d="m74.754 115.2h-20.992c-4.6094 0-8.7031-0.51172-12.289-2.0469-2.5586-1.0234-4.6094-2.0469-6.1445-3.5859-3.0703-1.5352-4.6094-5.1172-4.6094-8.7031 0-3.0703 1.0234-5.6328 3.0703-8.1914 4.0977-4.6094 10.754-8.1914 19.969-11.266 0.51172-0.51172 1.0234-1.0234 1.5352-1.5352 0 0-0.51172-0.51172-1.5352-1.5352-6.6562-8.7031-9.7266-16.383-8.7031-23.551 1.0234-4.6094 3.0742-8.707 7.168-11.777 6.6562-4.6094 16.895-4.6094 23.039 0 4.0977 3.0703 6.6562 7.168 7.168 11.777 1.0234 7.168-2.0469 15.359-8.1914 23.551-1.5352 1.5352-1.5352 2.0469-1.5352 2.0469s1.0234 0.51172 1.5352 1.0234c9.2148 3.0703 15.871 6.6562 19.969 11.266 2.0469 2.0469 3.0703 5.1211 3.0703 8.1914 0 3.5859-1.5352 7.168-4.0977 9.2148-1.5352 1.5352-3.5859 2.5586-6.1445 3.5859-4.0898 1.0234-8.1875 1.5352-12.281 1.5352zm-10.754-71.168c-3.0703 0-6.1445 1.0234-8.7031 2.5586-3.0703 2.0469-4.6094 5.1211-5.1211 8.7031-0.51172 5.6328 2.0469 12.289 7.168 19.457 1.5352 1.5352 3.0703 3.0703 2.5586 5.6328 0 2.0469-2.0469 3.5859-3.5859 5.1211 0 0-0.51172 0.51172-1.0234 0.51172-8.7031 2.5586-14.336 6.1445-18.434 10.238-0.50781 1.0273-1.0195 3.0742-1.0195 4.6094 0 2.0469 1.0234 4.0977 2.5586 5.1211 1.0234 1.0234 3.0703 2.0469 5.1211 2.5586 3.0703 1.0234 6.6562 1.5352 10.238 1.5352h20.992c3.5859 0 7.168-0.51172 10.238-1.5352 2.0469-0.51172 3.5859-1.5352 5.1211-2.5586s2.5586-3.0703 2.5586-5.1211c0-1.5352-0.51172-3.5859-2.0469-4.6094-3.5859-4.0977-9.7266-7.168-18.434-10.238-0.51172 0-0.51172-0.51172-1.0234-0.51172-1.5352-1.5352-3.5859-3.0703-3.5859-5.1211 0-2.0469 1.5352-4.0977 3.0703-5.6328 5.1211-6.6562 7.6797-13.824 7.168-19.457-0.51172-3.5859-2.0469-6.1445-5.1211-8.7031-2.5508-1.5352-5.625-2.5586-8.6953-2.5586z"/>
 </g>
</svg>
