<?xml version="1.0" encoding="UTF-8"?>
<svg width="128pt" height="128pt" version="1.1" viewBox="0 0 128 128" xmlns="http://www.w3.org/2000/svg">
 <g fill="#541212">
  <path d="m53.578 117.52c4.3398 0 7.8594-3.5781 7.8594-7.9805 0-4.3984-3.5195-7.9805-7.8594-7.9805s-7.8594 3.5781-7.8594 7.9805c0 4.4023 3.5195 7.9805 7.8594 7.9805zm0-13.961c3.2383 0 5.8594 2.6797 5.8594 5.9805 0 3.3008-2.6406 5.9805-5.8594 5.9805s-5.8594-2.6797-5.8594-5.9805c0-3.3008 2.6211-5.9805 5.8594-5.9805z"/>
  <path d="m36.422 117.52c4.3398 0 7.8594-3.5781 7.8594-7.9805 0-4.3984-3.5195-7.9805-7.8594-7.9805s-7.8594 3.5781-7.8594 7.9805c-0.003906 4.4023 3.5156 7.9805 7.8594 7.9805zm0-13.961c3.2383 0 5.8594 2.6797 5.8594 5.9805 0 3.3008-2.6406 5.9805-5.8594 5.9805s-5.8594-2.6797-5.8594-5.9805c-0.003906-3.3008 2.6172-5.9805 5.8594-5.9805z"/>
  <path d="m70.738 117.52c4.3398 0 7.8594-3.5781 7.8594-7.9805 0-4.3984-3.5195-7.9805-7.8594-7.9805-4.3398 0-7.8594 3.5781-7.8594 7.9805 0 4.4023 3.5195 7.9805 7.8594 7.9805zm0-13.961c3.2383 0 5.8594 2.6797 5.8594 5.9805 0 3.3008-2.6406 5.9805-5.8594 5.9805s-5.8594-2.6797-5.8594-5.9805c0-3.3008 2.6211-5.9805 5.8594-5.9805z"/>
  <path d="m11.379 109.54c0 4.3984 3.5195 7.9805 7.8594 7.9805 4.3398 0 7.8594-3.5781 7.8594-7.9805 0-4.3984-3.5195-7.9805-7.8594-7.9805-4.3398 0-7.8594 3.582-7.8594 7.9805zm7.8828-5.9805c3.2383 0 5.8594 2.6797 5.8594 5.9805 0 3.3008-2.6406 5.9805-5.8594 5.9805s-5.8594-2.6797-5.8594-5.9805c-0.003906-3.3008 2.6172-5.9805 5.8594-5.9805z"/>
  <path d="m62.98 57.66h-10.398c-0.55859 0-1 0.44141-1 1v21.922c0 0.039063 0.019531 0.078125 0.019531 0.14062 0 0.078125 0.019532 0.14062 0.039063 0.21875 0.019531 0.058594 0.058594 0.12109 0.10156 0.17969 0.019531 0.039062 0.039062 0.10156 0.078124 0.14062l6.5 7.4414 0.019532 0.019531c0.078125 0.078125 0.16016 0.14062 0.26172 0.19922 0.019532 0.019531 0.039063 0.039063 0.058594 0.039063 0.12109 0.058593 0.26172 0.078124 0.39844 0.078124h17.059c0.55859 0 1-0.44141 1-1v-5.1406c0-0.82031-0.19922-1.6016-0.60156-2.3008l-12.699-22.422c-0.15625-0.31641-0.47656-0.51562-0.83594-0.51562zm12.16 25.219v4.1406h-15.602l-5.9609-6.8203v-20.539h8.8203l12.398 21.922c0.22266 0.39844 0.34375 0.83984 0.34375 1.2969z"/>
  <path d="m24.48 78.199c-0.28125-0.48047-0.87891-0.64062-1.3594-0.37891-0.48047 0.28125-0.64062 0.87891-0.37891 1.3594l3.7188 6.5586c0.17969 0.32031 0.51953 0.5 0.85937 0.5 0.16016 0 0.33984-0.039062 0.5-0.14062 0.48047-0.28125 0.64063-0.87891 0.37891-1.3594z"/>
  <path d="m30.34 78.199c-0.28125-0.48047-0.87891-0.64062-1.3594-0.37891-0.48047 0.28125-0.64062 0.87891-0.37891 1.3594l3.7188 6.5586c0.17969 0.32031 0.51953 0.5 0.85938 0.5 0.16016 0 0.33984-0.039062 0.5-0.14062 0.48047-0.28125 0.64062-0.87891 0.37891-1.3594z"/>
  <path d="m36.199 78.199c-0.28125-0.48047-0.87891-0.64062-1.3594-0.37891-0.48047 0.28125-0.64062 0.87891-0.37891 1.3594l3.7188 6.5586c0.17969 0.32031 0.51953 0.5 0.85937 0.5 0.16016 0 0.33984-0.039062 0.5-0.14062 0.48047-0.28125 0.64063-0.87891 0.37891-1.3594z"/>
  <path d="m111.24 88.199v-75.238c0-0.019532-0.019531-0.058594-0.019531-0.078126-0.019531-1.5-0.57812-2.9805-1.6992-4.1211-2.1602-2.1992-5.8984-2.2383-8.1406-0.16016l-76.141 38.879c-3.1016 0.16016-5.5781 2.7383-5.5781 5.9414v20.219h-0.64062c-6.6211 0-12.02 5.4609-12.02 12.199v6.6406c0 1.3789 1.1211 2.5 2.4805 2.5h15.879c-0.058594 0.62109-0.10156 1.2383-0.10156 1.8398 0 0.44141 0.019532 0.83984 0.039063 1.2383h-7c-6.2188 0-11.301 5.0586-11.301 11.301v0.33984c0 6.2188 5.0586 11.301 11.301 11.301h53.398c6.2383 0 11.301-5.0586 11.301-11.301v-0.33984c0-6.2188-5.0586-11.301-11.301-11.301h-7c0.019532-0.39844 0.039063-0.80078 0.039063-1.2383 0-0.60156-0.039063-1.2188-0.10156-1.8398h15.879c1.3594 0 2.4805-1.1211 2.4805-2.5v-9.5781c0-1.8398-0.48047-3.6602-1.3789-5.2617l-9.1406-16.16 28.801-35.781 5.6406-7.0195c0.85938-0.23828 1.6406-0.66016 2.3203-1.2812l0.003906 70.801c-5.4609 0.51953-9.7617 5.1992-9.7617 10.879 0 6.0195 4.8203 10.922 10.762 10.922 5.9414 0 10.762-4.8984 10.762-10.922 0-5.6992-4.3008-10.379-9.7617-10.879zm-10.457-65.059-3-7.5391 1.8203-1.5c0.21875 1.1406 0.73828 2.2188 1.6016 3.0781 0.83984 0.85937 1.8984 1.4219 3.0586 1.6406zm-9.8828 12.258-3.1602-10.461 10.801 0.98047zm5.2617-18.457 2.8008 7.0195-10.121-0.92188zm-10.34 8.5977 3.2617 10.801-14.34-1.6016zm2.7578 12.762-11.82 14.699-3.2188-16.359zm-63.039 11.16c2.1406 0 3.8789 1.7812 3.8789 3.9609s-1.7383 3.9609-3.8789 3.9609c-2.1406 0-3.8789-1.7812-3.8789-3.9609 0-2.1836 1.7383-3.9609 3.8789-3.9609zm-3.8789 8.3984c1.0391 0.94141 2.3789 1.5195 3.8789 1.5195 3.2383 0 5.8789-2.6797 5.8789-5.9609 0-2.2812-1.2812-4.2383-3.1406-5.2383l70.441-35.98-27.16 22.602-20.32 16.898h-0.96094c-2.5 0-4.5586 2.0586-4.5586 4.6211v17.32h-7.8594l-5.5586-9.8008c-0.28125-0.48047-0.87891-0.64062-1.3594-0.37891-0.48047 0.28125-0.64062 0.87891-0.37891 1.3594l5 8.8008h-13.898zm59.34 51.5v0.33984c0 5.1211-4.1797 9.3008-9.3008 9.3008h-53.398c-5.1211 0-9.3008-4.1797-9.3008-9.3008v-0.33984c0-5.1211 4.1602-9.3008 9.3008-9.3008h53.398c5.1211 0 9.3008 4.1797 9.3008 9.3008zm-18.281-12.539c0 0.44141-0.019531 0.83984-0.039062 1.2383h-35.359c-0.019531-0.39844-0.039062-0.80078-0.039062-1.2383 0-0.57812 0.078125-1.2188 0.14062-1.8398h35.16c0.058594 0.62109 0.13672 1.2578 0.13672 1.8398zm18.281-13.941v9.5781c0 0.28125-0.21875 0.5-0.48047 0.5l-71.039 0.003907c-0.26172 0-0.48047-0.21875-0.48047-0.5v-6.6406c0-5.6211 4.5-10.199 10.02-10.199h27.699c0.55859 0 1-0.44141 1-1v-18.32c0-1.4414 1.1406-2.6211 2.5586-2.6211h14.059c0.60156 0 1.1602 0.21875 1.6797 0.66016 0.16016 0.12109 0.33984 0.33984 0.51953 0.62109l13.359 23.621c0.70703 1.3398 1.1055 2.8164 1.1055 4.2969zm-12.762-28.879c-0.32031-0.51953-0.66016-0.92188-0.98047-1.1602-0.82031-0.71875-1.8594-1.1211-2.9414-1.1211h-9.9609l17.281-14.359 3.4805 17.68-3.6797 4.5781zm39.863-38.238c-1.4609 1.4805-4.0195 1.4805-5.4805 0-1.5195-1.5391-1.5195-4.0586 0-5.6211 0.73828-0.73828 1.6992-1.1602 2.7383-1.1602s2 0.42188 2.7383 1.1602c1.5234 1.5586 1.5234 4.0781 0.003906 5.6211zm2.1367 92.219c-4.8398 0-8.7617-4-8.7617-8.9219s3.9219-8.9219 8.7617-8.9219c4.8398 0 8.7617 4 8.7617 8.9219s-3.9219 8.9219-8.7617 8.9219z"/>
 </g>
</svg>
