<?xml version="1.0" encoding="UTF-8"?>
<svg width="128pt" height="128pt" version="1.1" viewBox="0 0 128 128" xmlns="http://www.w3.org/2000/svg">
 <g fill="#541212">
  <path d="m14.512 119.27h98.977c3.0391 0 5.5117-2.4688 5.5117-5.5117v-4.3008c0-3.0391-2.4688-5.5117-5.5117-5.5117h-32.391c1.5312-6.5117-0.85156-3.1484 4.3516-5.9219l3.5391 2.4688c1.3086 0.91016 3.0781 0.76172 4.2109-0.37891l2.8789-2.8984c1.1211-1.1289 1.2812-2.8984 0.37891-4.2109l-2.4688-3.5703c0.60156-1.1406 1.1016-2.3398 1.4688-3.5703l4.2383-0.76953c1.5703-0.28125 2.6992-1.6484 2.6992-3.2383v-4.1016c0-1.6016-1.1406-2.9609-2.6992-3.2383l-4.2383-0.76953c-0.37891-1.2305-0.87109-2.4219-1.4688-3.5703l2.4688-3.5703c0.89844-1.3086 0.75-3.0781-0.37891-4.2109l-2.8789-2.8984c-1.1289-1.1289-2.8984-1.2891-4.1992-0.37891l-3.5391 2.4688c-1.1289-0.60156-2.3203-1.1016-3.5391-1.4805l-0.76953-4.2695c-0.28125-1.5703-1.6406-2.7109-3.2383-2.7109h-4.0781c-1.5898 0-2.9492 1.1406-3.2305 2.7109l-0.76953 4.2695c-1.2188 0.37891-2.3984 0.87109-3.5391 1.4805l-3.5391-2.4688c-1.3086-0.92188-3.0781-0.76172-4.2109 0.37891l-2.8789 2.8984c-1.1211 1.1289-1.2812 2.8984-0.37891 4.2109l2.4688 3.5703c-0.60156 1.1406-1.1016 2.3398-1.4688 3.5703l-4.2383 0.76953c-1.5703 0.28125-2.6992 1.6484-2.6992 3.2383v4.1016c0 1.6016 1.1406 2.9609 2.6992 3.2383l4.2383 0.76953c0.37891 1.2305 0.87109 2.4219 1.4688 3.5586l-2.4609 3.5703c-0.91016 1.3086-0.75 3.0781 0.37109 4.2109l2.8789 2.8984c1.1289 1.1289 2.8906 1.2891 4.2109 0.37891l3.5391-2.4688c1.1289 0.60156 2.3203 1.1016 3.5391 1.4805l0.76953 4.2695c0.050781 0.26953 3.2812 0.17969-40.762 0.17969l-0.003906-67.332c3.7891-0.26953 6.7891-3.4297 6.7891-7.2891 0-0.23047 0-0.14844 36.621-0.14844 0 3.9609 2.7891 6.8203 6.1406 7.3594v2.6289c0 2.3711 1.4609 4.4102 3.5312 5.2617v5.1602c0 1.9805 1.6094 3.5898 3.5781 3.5898s3.5781-1.6094 3.5781-3.5898v-5.1602c2.0703-0.85156 3.5312-2.8906 3.5312-5.2617v-2.6289c3.3281-0.53906 6.1406-3.3789 6.1406-7.3594h12.781c3.5586 0 6.4609-2.9102 6.4609-6.4805 0-3.5703-2.8984-6.4805-6.4609-6.4805h-12.781c0-4.4219-3.4609-7.4688-7.3203-7.4688h-11.871c-4.0391 0-7.3203 3.2812-7.3203 7.3203 0 0.23047 0 0.14844-36.621 0.14844 0-4.4219-3.4609-7.4688-7.3203-7.4688h-11.871c-4.0391 0-7.3203 3.2812-7.3203 7.3203v13.27c0 3.8594 3 7.0195 6.7891 7.2891l0.003907 67.328h-2.4102c-3.0391 0-5.5117 2.4688-5.5117 5.5117v4.3008c0 3.0391 2.4688 5.5117 5.5117 5.5117zm85.25-100.07h12.781c1.9102 0 3.4609 1.5586 3.4609 3.4805 0 1.9219-1.5508 3.4805-3.4609 3.4805h-12.781v-6.9688zm-12.672 30.379c0 0.78125-1.1602 0.78125-1.1602 0v-4.7305h1.1602zm3.5312-10.422c0 1.4883-1.2188 2.6719-2.6719 2.6797-2.8398 0.011718-3.5195 0.14062-4.4219-0.48828-1.4219-1.0117-1.1406-2.3398-1.1406-4.7188h8.2305v2.5312zm-14.371-23.109c0-2.3789 1.9414-4.3203 4.3203-4.3203h11.871c2.3789 0 4.3203 1.9414 4.3203 4.3203v13.27c0 2.1719-1.6211 4.3203-4.6406 4.3203h-11.551c-2.3789 0-4.3203-1.9414-4.3203-4.3203zm-39.621 3.1484h36.621v6.9688l-36.621 0.007813zm24.41 78.84c-0.26953 0.19141-0.23047 0.10156-3.25-2.9297-0.28125-0.28125-0.12891-0.23828 2.9609-4.7188 0.94922-1.3711-0.73047-1.8789-1.8281-6.1797-0.30859-1.2305-1.0703-1.0781-6.3516-2.0391-0.32812-0.058594-0.23828-0.070313-0.23828-4.3906 0-0.35938-0.14062-0.21875 5.3984-1.2305 1.6406-0.30078 0.80078-1.8086 3.0703-5.6719 0.64062-1.0898 0-1.5312-3.0586-5.9492-0.19922-0.28125-0.21094-0.14062 2.9219-3.2812 0.23047-0.23047 0.058594-0.23828 4.6719 2.9805 1.4414 1.0117 1.6797-0.67969 6.1719-1.8398 1.2305-0.32031 1.0781-1.0703 2.0312-6.3789 0.058594-0.33984 0.10156-0.23828 4.3594-0.23828 0.35156 0 0.21875-0.10938 1.2109 5.4297 0.28906 1.6406 1.8008 0.80078 5.6406 3.0781 1.1016 0.64844 1.5312 0 5.9414-3.0703 0.26953-0.19141 0.23828-0.089844 3.2383 2.9297 0.25 0.26172 0.23828 0.089844-2.9609 4.7188-0.94922 1.3789 0.73047 1.8789 1.8281 6.1797 0.30859 1.2305 1.0703 1.0781 6.3516 2.0391 0.32812 0.058594 0.23828-0.039062 0.23828 4.3906 0 0.35938 0.14062 0.21875-5.3984 1.2305-1.6797 0.30078-0.76953 1.7617-3.0703 5.6719-0.64844 1.1016 0 1.5391 3.0508 5.9492 0.19922 0.28906 0.19141 0.17188-2.9219 3.2812-0.25 0.25-0.058594 0.23828-4.6797-2.9805-1.3789-0.96094-1.8711 0.73047-6.1719 1.8398-1.2305 0.32031-1.0781 1.0703-2.0312 6.3789-0.058593 0.33984-0.10156 0.23828-4.3594 0.23828-0.32813 0-0.21875 0.10156-1.2109-5.4297-0.10156-0.57812-0.53125-1.0391-1.1016-1.1914-7.1406-1.8398-2.8711-4.1406-10.48 1.1797zm-47.91-68.715v-13.27c0-2.3789 1.9414-4.3203 4.3203-4.3203h11.871c2.3789 0 4.3203 1.9414 4.3203 4.3203v13.27c0 2.3789-1.9414 4.3203-4.3203 4.3203h-11.871c-2.3789 0-4.3203-1.9414-4.3203-4.3203zm13.711 7.3203v67.309h-6.9219l0.003906-67.309h6.9219zm-14.84 72.82c0-1.3789 1.1289-2.5117 2.5117-2.5117h98.977c1.3789 0 2.5117 1.1289 2.5117 2.5117v4.3008c0 1.3906-1.1289 2.5117-2.5117 2.5117l-98.977-0.003907c-1.3789 0-2.5117-1.1289-2.5117-2.5117v-4.3008z"/>
  <path d="m87.961 79.82c0-6.6992-5.4219-12.141-12.09-12.141-6.6719 0-12.09 5.4492-12.09 12.141 0 6.6914 5.4219 12.141 12.09 12.141 6.6719 0 12.09-5.4492 12.09-12.141zm-21.172 0c0-5.0391 4.0781-9.1406 9.0898-9.1406 5.0117 0 9.0898 4.1016 9.0898 9.1406 0 5.0391-4.0781 9.1406-9.0898 9.1406-5.0117 0-9.0898-4.1016-9.0898-9.1406z"/>
 </g>
</svg>
