<?xml version="1.0" encoding="UTF-8"?>
<svg width="128pt" height="128pt" version="1.1" viewBox="0 10 128 128" xmlns="http://www.w3.org/2000/svg">
 <g fill="#541212">
  <path d="m122 39.719h-18.957l-3.6445-23.922c-0.16406-1.0898-1.1836-1.8398-2.2812-1.6758l-91.414 14h0.003906c-0.52344 0.074218-1 0.35938-1.3164 0.78906-0.31641 0.42578-0.44922 0.96094-0.37109 1.4844l10.621 69.371c0.14844 0.98047 0.98828 1.6992 1.9805 1.6992 0.10156 0 0.19922-0.011719 0.30469-0.023438l10.578-1.625v12.09c0 0.53125 0.21094 1.0352 0.58594 1.4102s0.88672 0.58984 1.4141 0.58984h92.492c0.53125 0 1.0391-0.21484 1.4141-0.58984s0.58594-0.87891 0.58594-1.4102v-70.191c0-0.53125-0.21094-1.0352-0.58594-1.4102s-0.88672-0.58984-1.4141-0.58984zm-2 48.148-25.23-22.07c-0.40625-0.35547-0.93359-0.53125-1.4766-0.48828-0.53516 0.046875-1.0352 0.30078-1.3789 0.71484l-21.906 26.309-15.531-16.867c-0.35937-0.39453-0.86328-0.625-1.3984-0.64453-0.53516-0.03125-1.0547 0.17188-1.4414 0.54688l-20.129 18.91v-50.559h88.492zm-111.72-56.102 87.461-13.398 3.2617 21.352h-69.488c-1.1055 0-2 0.89453-2 2v54.051l-9.2148 1.4141zm23.23 78.141v-10.141l21.398-20.105 15.711 17.059c0.03125 0.035156 0.074218 0.046875 0.10547 0.078125s0.050782 0.074219 0.085938 0.10547v-0.003906c0.089844 0.058593 0.17969 0.11328 0.28125 0.16016 0.078125 0.054687 0.16406 0.10547 0.25391 0.14453 0.14844 0.054687 0.30469 0.09375 0.46094 0.10938 0.078125 0.019531 0.16406 0.035156 0.24609 0.039062h0.039062c0.066406 0 0.125-0.035156 0.19922-0.039062 0.19141-0.015625 0.38672-0.054688 0.56641-0.125 0.09375-0.046875 0.17969-0.10156 0.26562-0.16016 0.12109-0.054688 0.23047-0.125 0.33594-0.19922 0.039062-0.035156 0.050781-0.078125 0.085937-0.12109 0.035156-0.035156 0.070313-0.039062 0.09375-0.074219l22.047-26.484 26.32 23.031v16.719z"/>
  <path d="m58.656 69.301c3.7539 0 7.1406-2.2656 8.5781-5.7344 1.4336-3.4688 0.64453-7.4609-2.0117-10.121-2.6602-2.6562-6.6484-3.4492-10.121-2.0117-3.4688 1.4336-5.7344 4.8203-5.7344 8.5742 0.003906 5.125 4.1602 9.2812 9.2852 9.2891zm0-14.57v-0.003907c2.1367 0 4.0664 1.2891 4.8867 3.2656 0.82031 1.9766 0.36328 4.2461-1.1445 5.7617-1.5117 1.5117-3.7852 1.9648-5.7617 1.1445-1.9766-0.81641-3.2656-2.7461-3.2656-4.8867 0.003906-2.9141 2.3633-5.2812 5.2852-5.2852z"/>
 </g>
</svg>
