<?xml version="1.0" encoding="UTF-8"?>
<svg width="128pt" height="128pt" version="1.1" viewBox="0 0 128 128" xmlns="http://www.w3.org/2000/svg">
 <path d="m128 31.516c0-1.7656-0.66016-3.3672-1.7266-4.6094-0.066407-0.09375-0.13281-0.20312-0.21484-0.28125-0.039063-0.039062-0.082032-0.066406-0.10938-0.10938-0.054688-0.054687-0.09375-0.09375-0.14844-0.14844-0.29688-0.28125-0.59375-0.53906-0.92969-0.76953-0.039063-0.027344-0.09375-0.054687-0.13281-0.082031-0.35156-0.23047-0.71484-0.42969-1.0898-0.59375-0.039063-0.011719-0.09375-0.027344-0.13281-0.054687-0.40234-0.16016-0.80859-0.29688-1.2266-0.37891-0.027343 0-0.054687-0.011719-0.082031-0.011719-0.45703-0.09375-0.91797-0.13281-1.3867-0.13281l-113.62 0.003906c-0.47266 0-0.94141 0.054688-1.3867 0.13281-0.027344 0-0.054688 0-0.066406 0.011719-0.42969 0.09375-0.83594 0.21484-1.2383 0.39062-0.039062 0.011719-0.082031 0.027344-0.12109 0.054688-0.39062 0.16016-0.75391 0.36328-1.1055 0.59375-0.039063 0.027344-0.082032 0.054688-0.12109 0.082031-0.33594 0.23047-0.64844 0.48438-0.94141 0.78125-0.039063 0.039063-0.09375 0.082031-0.13281 0.13281-0.039062 0.039062-0.082031 0.066406-0.12109 0.10938-0.09375 0.09375-0.16016 0.20312-0.23047 0.30859-1.0703 1.2266-1.7305 2.8164-1.7305 4.5703v64.969c0 1.7656 0.66016 3.3555 1.7266 4.6094 0.066407 0.10938 0.13281 0.20312 0.21484 0.29688 0.039063 0.039063 0.082032 0.066406 0.10938 0.10938l0.14844 0.14844c0.29688 0.28125 0.59375 0.53906 0.92969 0.76953 0.039063 0.027343 0.09375 0.054687 0.13281 0.082031 0.35156 0.23047 0.71484 0.42969 1.0898 0.59375 0.039063 0.011719 0.09375 0.039062 0.13281 0.054688 0.39062 0.16016 0.80859 0.29687 1.2266 0.37891 0.027343 0 0.054687 0.011718 0.082031 0.011718 0.45703 0.09375 0.91797 0.13281 1.3867 0.13281h113.62c0.47266 0 0.92969-0.054687 1.3867-0.13281 0.027344 0 0.054688-0.011718 0.082032-0.011718 0.41797-0.09375 0.82031-0.21484 1.2266-0.37891 0.054688-0.011719 0.09375-0.039063 0.14844-0.054688 0.37891-0.16016 0.72656-0.36328 1.0781-0.57812 0.054688-0.027344 0.10938-0.066406 0.14844-0.09375 0.32422-0.23047 0.63281-0.48438 0.91797-0.75391 0.054687-0.054688 0.10938-0.10938 0.16016-0.16016 0.039063-0.039062 0.066406-0.066406 0.10938-0.10937 0.082031-0.082032 0.14844-0.17578 0.20312-0.28125 1.0625-1.2656 1.7344-2.8672 1.7344-4.6328zm-51.199 32.484 47.133-33.117c0.039062 0.20313 0.066406 0.41797 0.066406 0.63281v64.969c0 0.21484-0.027344 0.42969-0.066406 0.63281zm43.801-35.664-48.422 34.02-8.1641 5.7383-56.633-39.758zm-116.53 68.781c-0.039062-0.20313-0.066406-0.41797-0.066406-0.63281l-0.003906-64.969c0-0.21484 0.027344-0.42969 0.066406-0.63281l47.133 33.117zm3.3125 2.5469 47.293-33.227 8.1797 5.7383c0.12109 0.082031 0.24219 0.13281 0.37891 0.1875 0.066406 0.027344 0.12109 0.066407 0.17578 0.09375 0.57812 0.1875 1.2266 0.09375 1.75-0.26953l8.1641-5.7383 47.293 33.227-113.23 0.003907z" fill="#541212"/>
</svg>
