<?xml version="1.0" encoding="UTF-8"?>
<svg width="128pt" height="128pt" version="1.1" viewBox="6 5 128 128" xmlns="http://www.w3.org/2000/svg">
 <path d="m87.375 41.035-0.39062-4.5156-0.8125-0.26172c-5.5391-1.7656-17.176-0.26953-17.668-0.20312l-1.2148 0.16016 0.066407 0.77734-5.7734 0.53906c-4.8477 0.45312-9.2734 2.7305-12.465 6.4062l-3.4062 3.9258-1.7852-1.543-36.766 39.969 3.668 3.0859c-1.9336 2.3398-6.1797 8.2969-4.5508 13.836 1.1719 3.9883 5.0703 6.8008 11.59 8.3672 0.80469 0.19141 1.9062 0.34375 3.1836 0.51953 3.7188 0.51172 9.9414 1.3672 11.305 4.1445 0.50391 1.0352 0.3125 2.7969-0.5625 4.0781h2.8086c0.76563-2.5586 0.78906-3.6953 0.050782-5.2031-1.9609-4-8.4883-4.8984-13.254-5.5547-1.207-0.16797-2.2539-0.30859-2.9375-0.47266-5.5586-1.332-8.832-3.5508-9.7305-6.5938-1.2773-4.3281 2.3906-9.4336 4.0547-11.465l4.3242 3.6406 17.809-21.625c0.87891-1.1562 2.2148-1.875 3.6641-1.9688l2.5781-0.16406 1.1992-1.3438 2.7031 2.3438 8.6484-11-2.0352-1.8047 0.97656-1.0977-1.3594-1.3672 1.9648-2.2695-2.3125-2.0078 3.3906-3.9102c2.0195-2.3281 4.8203-3.7656 7.8867-4.0508l5.7305-0.53516 0.078125 0.88281 1.2734-0.10938c0.53516-0.046875 13.133-1.1562 17.289-3.2227zm-47.422 27.387-1.5273 0.097656c-2.1914 0.14062-4.2109 1.2266-5.5078 2.9336l-16.133 19.59-5.9297-4.9883 33.273-36.18 5.5195 4.7617-1.8438 2.125 1.3359 1.3438zm4.7617-0.20703-0.64844-0.5625 5.9141-6.6367 0.23438 0.20703zm17.273-26.359c-3.7266 0.34766-7.1289 2.0938-9.5859 4.9258l-3.2266 3.7148-1.3516-1.1719 3.2227-3.7148c2.7539-3.1758 6.582-5.1406 10.77-5.5312l5.7617-0.53516 0.15625 1.7812zm8.3711 0.11719-0.30469-3.5234c2.8984-0.30859 10.297-0.94922 14.531 0.027343l0.085937 0.98438c-3.2969 1.2109-10.477 2.125-14.312 2.5117zm22.059-9.957 3.2188-11.652c0.1875-0.68359 0.89453-1.0781 1.5742-0.89062 0.67969 0.1875 1.082 0.89453 0.89062 1.5742l-3.2188 11.652c-0.15625 0.56641-0.67187 0.9375-1.2344 0.9375-0.11328 0-0.22656-0.015625-0.34375-0.046875-0.67188-0.19141-1.0742-0.89453-0.88672-1.5742zm3.3359 24.637c-0.085937 0.019531-0.17578 0.027344-0.26172 0.027344-0.59375 0-1.125-0.41406-1.25-1.0195l-2.1875-10.473c-0.14453-0.69141 0.29687-1.3711 0.99219-1.5156 0.69141-0.15234 1.3672 0.29688 1.5156 0.99219l2.1875 10.473c0.13672 0.69141-0.30469 1.3711-0.99609 1.5156zm-4.793-11.539-5.7773 16.242c-0.1875 0.52344-0.67969 0.85156-1.207 0.85156-0.14062 0-0.28906-0.023437-0.42969-0.074219-0.66797-0.23828-1.0156-0.96875-0.77734-1.6328l5.7773-16.242c0.23828-0.66797 0.96875-1.0156 1.6328-0.77734 0.67187 0.23438 1.0195 0.96875 0.78125 1.6328zm25.086 9.25c0.57031 0.41406 0.69922 1.2148 0.28516 1.7852-0.25 0.34375-0.64062 0.52734-1.0391 0.52734-0.26172 0-0.52344-0.078125-0.75-0.24219l-18.012-13.051c-0.57031-0.41406-0.69922-1.2148-0.28516-1.7852 0.41406-0.57031 1.2109-0.70312 1.7852-0.28516zm-1.0898-18.098c0.070313 0.70312-0.44922 1.3281-1.1484 1.3984l-15.145 1.4648c-0.042968 0.003906-0.082031 0.007813-0.125 0.007813-0.65234 0-1.207-0.49609-1.2734-1.1562-0.070313-0.70312 0.44922-1.3281 1.1484-1.3945l15.145-1.4648c0.72266-0.0625 1.332 0.44141 1.3984 1.1445zm-18.941-3.0938 16.812-15.109c0.52344-0.46875 1.332-0.42969 1.8086 0.097656 0.47266 0.52734 0.42969 1.3359-0.097657 1.8086l-16.809 15.105c-0.24609 0.21875-0.55078 0.32812-0.85547 0.32812-0.34766 0-0.69922-0.14062-0.95312-0.42188-0.47656-0.52734-0.42969-1.3359 0.09375-1.8086zm-14.777-18.918c-0.25391-0.66016 0.074219-1.4023 0.73047-1.6562 0.66406-0.25391 1.4023 0.074219 1.6562 0.73047l7.1602 18.562c0.25391 0.66016-0.074218 1.4023-0.73047 1.6562-0.15234 0.058594-0.30859 0.085937-0.46094 0.085937-0.51172 0-1-0.3125-1.1953-0.82031zm16.062 1.1484 1.7305-6.4727c0.18359-0.68359 0.88672-1.0859 1.5664-0.90625 0.68359 0.18359 1.0898 0.88281 0.90625 1.5664l-1.7305 6.4727c-0.15234 0.57031-0.66797 0.94922-1.2344 0.94922-0.10937 0-0.22266-0.015625-0.33203-0.042969-0.68359-0.17969-1.0898-0.88281-0.90625-1.5664zm0.83203 44.594 0.80859 4.4414c0.12891 0.69531-0.33594 1.3594-1.0312 1.4883-0.078125 0.015625-0.15234 0.023438-0.23047 0.023438-0.60938 0-1.1484-0.43359-1.2578-1.0508l-0.80859-4.4414c-0.12891-0.69531 0.33594-1.3594 1.0312-1.4883 0.69922-0.13672 1.3594 0.33203 1.4883 1.0273zm23.793-24.609c0.078125 0.70312-0.42969 1.3359-1.1328 1.4102l-2.4805 0.26953c-0.046875 0.003906-0.09375 0.007813-0.14062 0.007813-0.64453 0-1.1992-0.48828-1.2695-1.1406-0.078125-0.70312 0.42969-1.3359 1.1328-1.4102l2.4805-0.26953c0.70703-0.078125 1.332 0.42969 1.4102 1.1328z" fill="#541212"/>
</svg>
