<?xml version="1.0" encoding="UTF-8"?>
<svg width="128pt" height="128pt" version="1.1" viewBox="0 0 128 128" xmlns="http://www.w3.org/2000/svg">
 <path d="m127.14 98.289c-0.47266-1.6719-1.1445-3.2891-1.9922-4.7969-0.29688-0.53906-0.82031-0.90234-1.4297-0.99609l-32.402-5.1328c-0.60547-0.09375-1.2266 0.09375-1.6836 0.51172-2.0742 1.9414-3.7461 4.2031-4.9727 6.7383-2.2773 4.7148-7.5312 6.9102-12.488 5.2266-10.266-3.4766-19.387-9.1484-27.137-16.883-7.7461-7.7461-13.418-16.883-16.867-27.137-1.6836-4.957 0.52734-10.199 5.2422-12.488 2.5195-1.2266 4.7812-2.8984 6.7227-4.957 0.41797-0.44531 0.60547-1.0625 0.51172-1.6836l-5.1523-32.422c-0.09375-0.60547-0.45703-1.1289-0.99609-1.4258-1.4961-0.83594-3.0977-1.4961-4.7812-1.9688-7.9766-2.2773-16.547-0.039062-22.367 5.793-2.8555 2.8281-4.9062 6.375-5.9297 10.254-0.011718 0.054687-0.027343 0.12109-0.039062 0.17578-0.26953 1.5781-0.51172 3.207-0.69922 4.8359-3.4609 29.078 6.3984 57.625 27.082 78.309 17.961 17.961 41.836 27.754 66.844 27.754 3.8008 0 7.625-0.23047 11.465-0.6875 1.6289-0.20312 3.2617-0.42969 4.8516-0.69922 0.054687-0.011719 0.12109-0.027344 0.17578-0.039063 3.8516-1.0234 7.3984-3.0703 10.227-5.9141 5.8438-5.832 8.0664-14.402 5.8164-22.367zm-8.6484 19.551c-2.3164 2.3164-5.1992 4-8.3555 4.8516-1.4805 0.25781-3.0195 0.47266-4.5547 0.66016-27.836 3.3281-55.188-6.1172-75.008-25.922-19.805-19.805-29.25-47.156-25.938-75.008 0.1875-1.5352 0.41797-3.0586 0.66016-4.5547 0.84766-3.1523 2.5312-6.0352 4.8633-8.3555 4.8086-4.8242 11.883-6.6562 18.445-4.7969 1.0781 0.30859 2.1016 0.69922 3.0859 1.1875l4.8242 30.438c-1.4414 1.4023-3.0703 2.5469-4.8789 3.4102-6.4531 3.125-9.5781 10.59-7.2773 17.367 3.6523 10.848 9.6484 20.508 17.84 28.684 8.1797 8.1641 17.84 14.176 28.684 17.84 6.7773 2.2891 14.254-0.83594 17.383-7.2773 0.86328-1.793 2.0078-3.4375 3.4102-4.8789l30.422 4.8242c0.48438 0.98438 0.89062 2.0195 1.1875 3.0859 1.8633 6.5508 0.03125 13.621-4.793 18.445z" fill="#541212"/>
</svg>
