<?xml version="1.0" encoding="UTF-8"?>
<svg width="128pt" height="128pt" version="1.1" viewBox="0 0 128 128" xmlns="http://www.w3.org/2000/svg">
 <g fill="#541212">
  <path d="m57.535 83.641c-6.6133 0-12 5.3867-12 12s5.3867 12 12 12c6.6133 0 12-5.3867 12-12s-5.3867-12-12-12zm0 21.332c-5.1484 0-9.332-4.1875-9.332-9.332 0-4.6914 3.4805-8.5742 8-9.2266v9.2266c0 0.73438 0.60156 1.332 1.332 1.332 0.73438 0 1.332-0.60156 1.332-1.332v-9.2266c4.5195 0.65234 8 4.5352 8 9.2266 0 5.1484-4.1875 9.332-9.332 9.332z"/>
  <path d="m31.266 78.906c-4.2266 0-7.6523 3.4414-7.6523 7.6523 0 4.2148 3.4414 7.668 7.6523 7.668 4.2148 0 7.668-3.4414 7.668-7.668 0-4.2266-3.4414-7.6523-7.668-7.6523zm0 12.652c-2.7461 0-4.9883-2.2383-4.9883-5 0-2.7617 2.2383-4.9883 4.9883-4.9883 2.7461 0 5 2.2383 5 4.9883 0 2.7461-2.2383 5-5 5z"/>
  <path d="m31.266 97.039c-4.2266 0-7.6523 3.4414-7.6523 7.6523 0 4.2148 3.4414 7.668 7.6523 7.668 4.2148 0 7.668-3.4414 7.668-7.668 0-4.2266-3.4414-7.6523-7.668-7.6523zm0 12.652c-2.7461 0-4.9883-2.2383-4.9883-5 0-2.7617 2.2383-4.9883 4.9883-4.9883 2.7461 0 5 2.2383 5 4.9883 0 2.7461-2.2383 5-5 5z"/>
  <path d="m22.441 70.906h14.691c0.73438 0 1.332-0.60156 1.332-1.332v-27.496c0-0.73438-0.60156-1.332-1.332-1.332h-14.691c-0.73438 0-1.332 0.60156-1.332 1.332v27.508c0 0.73437 0.60156 1.332 1.332 1.332zm1.332-27.508h12.027v24.84h-12.027z"/>
  <path d="m42.055 49.707h6.3086c0.73438 0 1.332-0.60156 1.332-1.332v-6.3086c0-0.73438-0.60156-1.332-1.332-1.332h-6.3086c-0.73438 0-1.332 0.60156-1.332 1.332v6.3086c0 0.73438 0.60156 1.332 1.332 1.332zm1.332-6.3086h3.6406v3.6406h-3.6406z"/>
  <path d="m53.227 49.707h6.3086c0.73438 0 1.332-0.60156 1.332-1.332v-6.3086c0-0.73438-0.60156-1.332-1.332-1.332h-6.3086c-0.73437 0-1.332 0.60156-1.332 1.332v6.3086c0 0.73438 0.60156 1.332 1.332 1.332zm1.332-6.3086h3.6406v3.6406h-3.6406z"/>
  <path d="m64.398 49.707h6.3086c0.73438 0 1.332-0.60156 1.332-1.332v-6.3086c0-0.73438-0.60156-1.332-1.332-1.332h-6.3086c-0.73438 0-1.332 0.60156-1.332 1.332v6.3086c0 0.73438 0.60156 1.332 1.332 1.332zm1.332-6.3086h3.6406v3.6406h-3.6406z"/>
  <path d="m42.055 60.309h6.3086c0.73438 0 1.332-0.60156 1.332-1.332v-6.3086c0-0.73438-0.60156-1.332-1.332-1.332h-6.3086c-0.73438 0-1.332 0.60156-1.332 1.332v6.3086c0 0.73438 0.60156 1.332 1.332 1.332zm1.332-6.3086h3.6406v3.6406h-3.6406z"/>
  <path d="m53.227 60.309h6.3086c0.73438 0 1.332-0.60156 1.332-1.332v-6.3086c0-0.73438-0.60156-1.332-1.332-1.332h-6.3086c-0.73437 0-1.332 0.60156-1.332 1.332v6.3086c0 0.73438 0.60156 1.332 1.332 1.332zm1.332-6.3086h3.6406v3.6406h-3.6406z"/>
  <path d="m64.398 60.309h6.3086c0.73438 0 1.332-0.60156 1.332-1.332v-6.3086c0-0.73438-0.60156-1.332-1.332-1.332h-6.3086c-0.73438 0-1.332 0.60156-1.332 1.332v6.3086c0 0.73438 0.60156 1.332 1.332 1.332zm1.332-6.3086h3.6406v3.6406h-3.6406z"/>
  <path d="m42.055 70.906h6.3086c0.73438 0 1.332-0.60156 1.332-1.332v-6.3086c0-0.73438-0.60156-1.332-1.332-1.332h-6.3086c-0.73438 0-1.332 0.60156-1.332 1.332v6.3086c0 0.73438 0.60156 1.332 1.332 1.332zm1.332-6.3086h3.6406v3.6406h-3.6406z"/>
  <path d="m53.227 70.906h6.3086c0.73438 0 1.332-0.60156 1.332-1.332v-6.3086c0-0.73438-0.60156-1.332-1.332-1.332h-6.3086c-0.73437 0-1.332 0.60156-1.332 1.332v6.3086c0 0.73438 0.60156 1.332 1.332 1.332zm1.332-6.3086h3.6406v3.6406h-3.6406z"/>
  <path d="m64.398 70.906h6.3086c0.73438 0 1.332-0.60156 1.332-1.332v-6.3086c0-0.73438-0.60156-1.332-1.332-1.332h-6.3086c-0.73438 0-1.332 0.60156-1.332 1.332v6.3086c0 0.73438 0.60156 1.332 1.332 1.332zm1.332-6.3086h3.6406v3.6406h-3.6406z"/>
  <path d="m104.91 97.625h-19.215c-1 0-1.9453-0.38672-2.6523-1.0938-0.70703-0.71875-1.1055-1.668-1.1055-2.668 0-2.0664 1.6797-3.7617 3.7617-3.7617h20.121c1.4414 0 2.7852-0.55859 3.8125-1.5742 1.0273-1.0117 1.5742-2.375 1.5742-3.8125 0-2.9727-2.4141-5.3867-5.3867-5.3867h-8.6133c-1.5078 0-2.7344-1.2266-2.7344-2.7344v-20.719c3.1484-0.625 5.5352-3.3984 5.5352-6.7344v-20.48c0-3.332-2.3867-6.1055-5.5352-6.7344v-8.668c0-1.5742 1.2812-2.8672 2.8672-2.8672h6.4922c0.73438 0 1.332-0.60156 1.332-1.332 0-0.73438-0.60156-1.332-1.332-1.332h-6.4922c-3.0547 0-5.5352 2.4805-5.5352 5.5352v8.668c-3.1484 0.625-5.5352 3.3984-5.5352 6.7344v20.48c0 3.332 2.3867 6.1055 5.5195 6.7344v20.719c0 2.9727 2.4258 5.3984 5.3984 5.3984h8.6133c1.4922 0 2.7188 1.2148 2.7188 2.7188 0 0.73438-0.28125 1.4141-0.80078 1.9219-0.50781 0.50781-1.1992 0.80078-1.9219 0.80078h-20.121c-3.5469 0-6.4258 2.8789-6.4258 6.4258 0 1.707 0.66797 3.3203 1.8789 4.5469 1.2148 1.2148 2.8281 1.8789 4.5469 1.8789h19.215c2 0 3.625 1.625 3.625 3.625 0 0.96094-0.375 1.8672-1.0664 2.5586-0.67969 0.67969-1.5859 1.0664-2.5586 1.0664h-28.574l0.007812-70.711c0-0.73438-0.60156-1.332-1.332-1.332h-7.293v-8.293c0-5.8789-4.7852-10.668-10.668-10.668h-20.945c-5.8789 0-10.668 4.7852-10.668 10.668v8.293h-7.293c-0.73438 0-1.332 0.60156-1.332 1.332v82.078c0 0.73438 0.60156 1.332 1.332 1.332h56.879c0.73438 0 1.332-0.60156 1.332-1.332v-8.707h28.574c1.6914 0 3.2656-0.65234 4.4531-1.8516 1.1875-1.1875 1.8398-2.7617 1.8398-4.4414 0-3.4648-2.8281-6.293-6.293-6.293zm-15.973-48.465v-20.48c0-2.3203 1.8789-4.1992 4.1992-4.1992 2.3203 0 4.1992 1.8789 4.1992 4.1992v20.48c0 2.3086-1.8789 4.1875-4.1875 4.1992h-0.011719-0.011718c-2.3086 0-4.1719-1.8945-4.1719-4.1992zm-60.84-21.973c0-4.4141 3.5859-8 8-8h20.945c4.4141 0 8 3.5859 8 8v8.293h-36.945zm-1.332 10.961h46.906v35.266h-54.188v-35.254h7.293zm-7.293 79.414v-41.492l54.199-0.003906v41.492h-54.188z"/>
 </g>
</svg>
