<?xml version="1.0" encoding="UTF-8"?>
<svg width="128pt" height="128pt" version="1.1" viewBox="7 0 128 128" xmlns="http://www.w3.org/2000/svg">
 <g fill="#541212">
  <path d="m113.6 63.859h-1.6016v-0.69922c-0.015625-10.574-3.5234-20.852-9.9805-29.227-6.4531-8.375-15.5-14.383-25.719-17.094-0.10547-1.7188-0.80859-3.3516-2-4.6016-1.3984-1.5195-3.375-2.3789-5.4414-2.3789h-9.8008c-2.0664 0-4.0391 0.85938-5.4414 2.3789-1.1953 1.25-1.9062 2.8906-2 4.6211-10.219 2.6797-19.254 8.6836-25.684 17.07-6.4336 8.3789-9.8906 18.664-9.8359 29.23v0.69922h-1.6992c-3.5352 0-6.3984 2.8633-6.3984 6.3984v2.8594c0.019531 3.5195 2.8789 6.3711 6.3984 6.3789h44.602v3.8594c-0.011719 8.4531 3.7461 16.477 10.238 21.879l14.918 12.441c0.35938 0.30078 0.81641 0.46094 1.2812 0.46094s0.92188-0.16016 1.2812-0.46094l14.918-12.441c6.5469-5.3789 10.344-13.406 10.359-21.879v-3.8594h1.6992c3.4844-0.066406 6.2812-2.8945 6.3008-6.3789v-2.8594c0-1.6953-0.67578-3.3242-1.875-4.5234-1.1992-1.1992-2.8281-1.875-4.5234-1.875zm-54.602 11.641h-44.602c-1.3203 0-2.3906-1.0586-2.3984-2.3789v-2.8594c0-1.3242 1.0742-2.3984 2.3984-2.3984h44.602zm0-12.34v0.69922h-14.602v-19.598c0-1.1055-0.89453-2-2-2-1.1055 0-2 0.89453-2 2v19.598h-20.301v-0.69922c-0.039062-9.5664 3.0547-18.875 8.8203-26.504 5.7617-7.6289 13.871-13.16 23.078-15.734l2 23.5c0.11328 1.1055 1.1055 1.9062 2.2109 1.7891 1.1055-0.11328 1.9062-1.1055 1.7891-2.2109l-2.3203-26.461c-0.070312-0.94531 0.25-1.875 0.89062-2.5742 0.64062-0.69531 1.5469-1.0938 2.4883-1.1055h9.8789c0.94531 0.011719 1.8516 0.41016 2.4883 1.1055 0.64062 0.69922 0.96094 1.6289 0.89062 2.5742l-2.2188 26.461c-0.066406 0.55469 0.10156 1.1094 0.46094 1.5352 0.35937 0.42578 0.88672 0.67969 1.4414 0.70312h0.16016c1.0469 0.003907 1.9141-0.80078 2-1.8398l2-23.48c8.8047 2.5234 16.602 7.7383 22.301 14.91s9.0234 15.941 9.5 25.09c-10.98-1.3789-20.719-13.242-20.84-13.379-0.37891-0.46484-0.94922-0.73437-1.5508-0.73437-0.60156 0-1.1719 0.26953-1.5508 0.73437-0.12109 0.14063-11.121 13.52-22.902 13.52-0.57031-0.035156-1.125 0.17578-1.5312 0.57422-0.40625 0.39844-0.62109 0.95313-0.58984 1.5234zm49 20.199c0 7.2695-3.2305 14.168-8.8203 18.82l-13.641 11.359-13.738-11.359c-5.5859-4.6562-8.8086-11.551-8.8008-18.82v-18.301c10.16-1.0586 19-9.3984 22.441-13.059 3.4805 3.6602 12.301 12 22.559 13.059zm8-10.238c-0.011719 1.3203-1.0781 2.3789-2.3984 2.3789h-1.6016v-7.6406h1.6992c1.3242 0 2.3984 1.0742 2.3984 2.3984z"/>
  <path d="m80.441 66.102v24.121c0 2.7383 2.2188 4.9609 4.9609 4.9609 2.7305-0.011719 4.9414-2.2305 4.9414-4.9609v-24.121c0-2.7617-2.2383-5-5-5s-5 2.2383-5 5zm6 0v24.121c0.003906 0.25391-0.089844 0.49609-0.26953 0.67969-0.17578 0.17969-0.41406 0.28125-0.67188 0.28125-0.53125 0-0.96094-0.42969-0.96094-0.96094v-24.121c0.011719-0.26562 0.12891-0.51953 0.32813-0.69531 0.19922-0.17969 0.46484-0.26562 0.73047-0.24609 0.48047 0.050782 0.84375 0.46094 0.83984 0.94141z"/>
  <path d="m90.441 100.92c0 6.6641-10 6.6641-10 0s10-6.6641 10 0"/>
 </g>
</svg>
