<?xml version="1.0" encoding="UTF-8"?>
<svg width="128pt" height="128pt" version="1.1" viewBox="8 6 128 128" xmlns="http://www.w3.org/2000/svg">
 <path d="m81.773 53.805c4.207 0.003906 8.2422-1.668 11.219-4.6406 2.9766-2.9727 4.6484-7.0078 4.6484-11.215s-1.668-8.2422-4.6445-11.219c-2.9727-2.9727-7.0078-4.6445-11.215-4.6445s-8.2422 1.668-11.215 4.6445c-2.9766 2.9727-4.6445 7.0078-4.6445 11.215 0.003906 4.2031 1.6758 8.2344 4.6484 11.207 2.9727 2.9727 7 4.6484 11.203 4.6523zm0-28.52c5.125-0.003906 9.7422 3.082 11.703 7.8125 1.9609 4.7305 0.87891 10.176-2.7422 13.797-3.6211 3.625-9.0664 4.707-13.797 2.75-4.7305-1.9609-7.8164-6.5781-7.8164-11.699 0.003906-6.9883 5.668-12.652 12.652-12.66zm-30.16 18.363 6.3086 0.86719c0.53906 1.9688 1.3242 3.8594 2.3359 5.6328l-3.8477 5.0898c-0.48438 0.63672-0.42188 1.5312 0.14453 2.0977l5.832 5.832c0.56641 0.56641 1.4609 0.625 2.0977 0.14453l5.0781-3.8477v-0.003906c1.7734 1.0117 3.6641 1.7969 5.6328 2.3398l0.86719 6.3086c0.10938 0.79297 0.78516 1.3789 1.5859 1.3789h8.25-0.003907c0.80078 0 1.4766-0.58984 1.5859-1.3789l0.86719-6.3086 0.003906-0.003906c1.9648-0.53906 3.8594-1.3242 5.6328-2.3359l5.0859 3.8516c0.64063 0.48047 1.5352 0.42188 2.0977-0.14453l5.832-5.832h0.003906c0.5625-0.56641 0.625-1.4609 0.14062-2.0977l-3.8477-5.0781c1.0078-1.7734 1.793-3.6641 2.3359-5.6328l6.3086-0.86719c0.79297-0.10938 1.3828-0.78516 1.3828-1.5859v-8.2539c0-0.80078-0.58984-1.4766-1.3828-1.5859l-6.3086-0.86719c-0.54297-1.9688-1.3281-3.8633-2.3359-5.6406l3.8398-5.0742c0.48047-0.63672 0.42188-1.5312-0.14453-2.0977l-5.8281-5.832c-0.5625-0.5625-1.457-0.62109-2.0938-0.14453l-5.0781 3.8477h0.003906c-1.7734-1.0078-3.668-1.793-5.6328-2.3359l-0.87891-6.3086c-0.10938-0.78906-0.78516-1.3828-1.5859-1.3828h-8.2461c-0.80078 0-1.4766 0.58984-1.5859 1.3828l-0.86719 6.3086h-0.003907c-1.9648 0.54297-3.8594 1.3281-5.6328 2.3359l-5.0781-3.8477c-0.63672-0.48047-1.5312-0.42188-2.0977 0.14453l-5.832 5.8359c-0.56641 0.56641-0.62891 1.4609-0.14453 2.0977l3.8477 5.0703c-1.0117 1.7734-1.793 3.668-2.3359 5.6328l-6.3086 0.86719v0.003907c-0.79297 0.10547-1.3828 0.78516-1.3828 1.582v8.25c0 0.80078 0.58984 1.4766 1.3828 1.5859zm1.8164-8.4375 6-0.82422v-0.003907c0.66016-0.089843 1.1914-0.58203 1.3398-1.2305 0.53906-2.3672 1.4727-4.625 2.7695-6.6797 0.35547-0.5625 0.32422-1.2891-0.078124-1.8203l-3.6602-4.8203 3.8594-3.8594 4.8281 3.6602h0.003907c0.52734 0.39844 1.2539 0.42969 1.8164 0.078126 2.0547-1.2969 4.3125-2.2344 6.6797-2.7695 0.64844-0.14844 1.1406-0.68359 1.2305-1.3438l0.82812-5.9961h5.457l0.82422 6 0.003906-0.003906c0.089844 0.66016 0.58203 1.1953 1.2305 1.3438 2.3672 0.53516 4.625 1.4727 6.6797 2.7695 0.5625 0.35547 1.2891 0.32422 1.8164-0.078126l4.8281-3.6602 3.8594 3.8594-3.6602 4.8281h0.003906c-0.40234 0.53125-0.43359 1.2578-0.078125 1.8203 1.2969 2.0547 2.2344 4.3125 2.7734 6.6797 0.14844 0.64844 0.67969 1.1367 1.3398 1.2305l6 0.82422v5.4609l-6 0.82422c-0.66016 0.09375-1.1953 0.58203-1.3398 1.2344-0.53906 2.3633-1.4766 4.6211-2.7734 6.6719-0.35547 0.56641-0.32422 1.2891 0.078125 1.8203l3.6602 4.8359-3.8594 3.8594-4.8281-3.6602-0.003906 0.003906c-0.52734-0.40234-1.2539-0.43359-1.8164-0.078125-2.0547 1.293-4.3125 2.2305-6.6797 2.7695-0.64844 0.14453-1.1406 0.67969-1.2305 1.3398l-0.82812 5.9961h-5.457l-0.82812-6.0039c-0.089844-0.66016-0.58203-1.1953-1.2305-1.3438-2.3672-0.53516-4.625-1.4727-6.6797-2.7695-0.5625-0.35547-1.2891-0.32422-1.8164 0.078125l-4.8281 3.6602-3.8633-3.8516 3.6602-4.8281c0.40625-0.53125 0.4375-1.2617 0.078124-1.8281-1.2969-2.0508-2.2305-4.3086-2.7695-6.6758-0.14453-0.65234-0.67969-1.1406-1.3398-1.2344l-6-0.82422zm21.246 2.9141h0.003907c-0.3125-0.30078-0.48828-0.71094-0.49219-1.1367-0.003906-0.42969 0.16797-0.84375 0.46875-1.1484 0.30469-0.30078 0.71875-0.47266 1.1445-0.46875 0.42969 0.003906 0.83984 0.17969 1.1406 0.48828l3.4766 3.4766 6.1875-6.1836c0.30078-0.30859 0.71094-0.48438 1.1406-0.48828 0.42578-0.003906 0.83984 0.16406 1.1445 0.46875 0.30078 0.30078 0.47266 0.71484 0.46875 1.1445-0.003906 0.42969-0.17969 0.83984-0.48828 1.1367l-7.3203 7.3203c-0.625 0.625-1.6367 0.625-2.2656 0zm45.762 38.289c-0.22266-2.8555-1.7344-5.4531-4.1133-7.0508-1.7344-1.2266-3.957-1.5352-5.9609-0.83203l-28.262 10.344c-1.6875-1.6484-3.7812-2.8281-6.0703-3.4141l-18.977-5.8359c-14.125-4.6875-24.086-1.1523-34.109 12.211l-0.71484-0.70313c-0.85156-0.83594-2.0039-1.2969-3.1992-1.2812-1.1914 0.011719-2.332 0.50391-3.1602 1.3633l-7.0547 7.2969c-1.7188 1.793-1.6797 4.6328 0.085938 6.3789l25.867 25.43c0.83594 0.82422 1.9648 1.2852 3.1406 1.2812h0.058594c1.1953-0.011718 2.3359-0.50391 3.1641-1.3672l7.0547-7.2969c1.7188-1.7891 1.6836-4.6328-0.082031-6.3789l-0.73047-0.71875 3.8242-3.918 21.91 0.51172c0.22656 0.003906 0.44922-0.039063 0.65625-0.12891l39.219-16.395c6.4531-2.7031 7.6133-6.6562 7.4531-9.4961zm-74.551 34.305-7.0547 7.2969c-0.23828 0.24609-0.56641 0.38281-0.90625 0.38281-0.33984 0.003906-0.66797-0.125-0.91406-0.36328l-25.875-25.422c-0.51172-0.51953-0.51953-1.3438-0.023438-1.875l7.0547-7.2969h-0.003907c0.23828-0.24219 0.56641-0.37891 0.90625-0.38281h0.019532-0.003906c0.33594 0 0.66016 0.13281 0.89844 0.36719l25.875 25.41c0.51172 0.51562 0.52344 1.3438 0.027344 1.875zm65.863-27.762-38.91 16.273-22.266-0.52344c-0.44531-0.007812-0.875 0.16406-1.1836 0.48047l-4.3008 4.4062-19.84-19.496c9.2539-12.504 17.953-15.707 30.812-11.434l0.035156 0.011719 18.992 5.8398c5.0781 1.5625 5.6875 3.6914 5.7031 5.1602h0.003906c0.023437 2.7773-2.1562 5.082-4.9336 5.2109l-12.039-2.4023c-0.86719-0.17578-1.7109 0.38672-1.8828 1.2539-0.17188 0.86719 0.39062 1.7109 1.2578 1.8828l12.215 2.4336c0.10156 0.019531 0.20703 0.03125 0.3125 0.03125h0.019532c4.6055-0.066407 8.293-3.8438 8.25-8.4492-0.003906-0.65625-0.097656-1.3125-0.27734-1.9453l27.742-10.156v-0.003906c1.0547-0.33984 2.2109-0.15625 3.1055 0.5 1.5352 1.0391 2.5195 2.7148 2.6797 4.5625 0.050781 0.98047 0.22266 3.9727-5.4961 6.3633z" fill="#541212"/>
</svg>
