<?xml version="1.0" encoding="UTF-8"?>
<svg width="128pt" height="128pt" version="1.1" viewBox="10 4 128 128" xmlns="http://www.w3.org/2000/svg">
 <g fill="#541212">
  <path d="m117.44 82.879v0c-0.0625-0.12891-0.19141-0.25781-0.38281-0.32031l-17.473-10.238v-27.711l17.473-8.5117c0.0625 0 0.12891-0.0625 0.19141-0.12891l0.19141-0.19141c0.12891-0.12891 0.19141-0.25781 0.19141-0.44922v-7.168c0-0.12891-0.0625-0.25781-0.12891-0.38281-0.0625-0.12891-0.19141-0.25781-0.32031-0.32031-0.0625 0-0.12891-0.0625-0.12891-0.0625l-39.934-23.234c-0.0625 0-0.12891-0.0625-0.19141-0.0625-0.0625-0.0625-0.19141-0.0625-0.32031-0.0625h-0.25781c-0.12891 0-0.19141 0-0.25781 0.0625l-66.172 31.934c-0.12891 0-0.19141 0.0625-0.32031 0.12891-0.12891 0.0625-0.25781 0.19141-0.32031 0.32031-0.0625 0.12891-0.12891 0.25781-0.12891 0.38281v6.9766c-0.0625 0.38281 0.0625 0.70312 0.38281 1.0234 0.0625 0.0625 0.0625 0.0625 0.12891 0.12891l16.258 9.4062v29.566l-16 7.8086c-0.12891 0.0625-0.32031 0.12891-0.38281 0.32031l-0.0625 0.0625c-0.12891 0.12891-0.19141 0.25781-0.19141 0.44922v6.9102c-0.0625 0.38281 0.0625 0.70312 0.38281 1.0234 0.0625 0.0625 0.0625 0.0625 0.12891 0.12891l39.938 23.297c0.25781 0.19141 0.44922 0.19141 0.64062 0.19141 0.25781 0 0.44922-0.12891 0.57422-0.19141l66.172-32.445c0.12891-0.0625 0.32031-0.12891 0.38281-0.32031l0.12891-0.12891c0.12891-0.12891 0.19141-0.25781 0.19141-0.44922v-7.1055c-0.0625-0.31641-0.19141-0.50781-0.38281-0.63672zm-0.066406-55.23c-0.0625-0.0625-0.0625-0.0625-0.12891-0.12891 0.066406 0.066407 0.12891 0.066407 0.12891 0.12891zm-107.84 8.6406c-0.0625 0-0.0625 0.0625-0.12891 0.0625 0.066406 0 0.066406-0.0625 0.12891-0.0625zm105.92 49.277v4.2227l-63.938 31.359v-4.4805zm-102.79 7.3633 13.246-6.4648v14.207zm37.762-25.152m-23.426 35.84c0.64063 0 1.1523-0.51172 1.1523-1.1523v-48.898c0-0.19141-0.0625-0.38281-0.25781-0.51172-0.0625-0.0625-0.12891-0.0625-0.12891-0.12891l-0.0625-0.0625c-0.0625-0.0625-0.0625-0.0625-0.12891-0.12891l-16.191-9.4062v-4.3516l37.891 22.145v4.3516l-16.32-9.6016c-0.19141-0.25781-0.51172-0.32031-0.83203-0.32031-0.64062 0-1.1523 0.51172-1.1523 1.1523v48.961c0 0.19141 0.0625 0.38281 0.25781 0.51172 0.0625 0.0625 0.12891 0.12891 0.12891 0.12891l0.0625 0.0625c0.0625 0.0625 0.0625 0.0625 0.12891 0.12891l17.727 10.305v4.3516l-37.824-22.016v-4.418l14.848 8.6406h0.0625c0.25781 0.25781 0.51172 0.25781 0.64062 0.25781zm24.512-38.082v-4.4805l63.938-30.848v4.2227zm-1.2148-6.3984-37.633-21.953 63.871-30.785 37.633 21.953zm3.0703 36.992c0.57422-0.25781 0.76953-0.89453 0.44922-1.4727-0.12891-0.25781-0.38281-0.51172-0.64062-0.57422-0.25781-0.0625-0.57422-0.0625-0.83203 0.0625l-19.07 9.2148v-44.672l16.383 9.5352c0.25781 0.19141 0.44922 0.19141 0.64063 0.19141h0.12891c0.0625 0 0.32031 0 0.51172-0.19141l46.398-22.527v26.496l-24.129 11.777c-0.25781 0.12891-0.51172 0.38281-0.57422 0.64062s-0.0625 0.51172 0.0625 0.76953c0.12891 0.38281 0.57422 0.64062 1.0234 0.64062 0.0625 0 0.32031 0 0.51172-0.19141l23.938-11.648 16.062 9.3438-63.938 31.168-16.129-9.4062z"/>
  <path d="m66.945 89.473c0.0625 0 0.32031 0 0.51172-0.19141l1.7266-0.89453c0.57422-0.25781 0.76953-0.89453 0.44922-1.4727-0.12891-0.25781-0.38281-0.51172-0.64062-0.57422-0.25781-0.0625-0.57422-0.0625-0.83203 0.0625l-1.793 0.89453c-0.25781 0.12891-0.51172 0.38281-0.57422 0.64062s-0.0625 0.51172 0.0625 0.76953c0.19141 0.50781 0.57812 0.76562 1.0898 0.76562z"/>
  <path d="m55.938 93.887c0.12891 0.12891 0.51172 0.44922 0.89453 0.44922 0.0625 0 0.32031 0 0.51172-0.12891l5.6328-2.7539c0.25781-0.12891 0.51172-0.38281 0.57422-0.64062s0.0625-0.57422-0.0625-0.83203c-0.12891-0.25781-0.38281-0.51172-0.64062-0.57422-0.25781-0.0625-0.57422-0.0625-0.83203 0.0625l-5.6953 2.7539c-0.57422 0.25781-0.76953 0.89453-0.44922 1.4727 0 0.066407 0 0.12891 0.066406 0.19141z"/>
 </g>
</svg>
