<?xml version="1.0" encoding="UTF-8"?>
<svg width="128pt" height="128pt" version="1.1" viewBox="57 1 66 128" xmlns="http://www.w3.org/2000/svg">
 <g fill="#541212">
  <path d="m82.875 104.54c-0.8125-1.2344-2.0703-2.082-3.5273-2.3828-1.4609-0.30078-2.9492-0.015625-4.1875 0.79297l-8.168-12.383c-3.6445-5.5312-10.039-8.4688-16.598-7.8242l5.9727-3.1406c0.88672-0.46484 1.2266-1.5625 0.75781-2.4453-0.46875-0.87891-1.5625-1.2227-2.4531-0.75391l-7.6445 4.0195c-0.88672 0.46484-1.2266 1.5625-0.75781 2.4453 0.29688 0.55859 0.84766 0.88672 1.4375 0.94531-0.19922 0.35156-0.30078 0.75781-0.22266 1.1875 0.0625 0.33984 0.23828 0.61719 0.45312 0.85938-0.58594 0.15234-1.0898 0.56641-1.2812 1.1875-0.29688 0.95312 0.24219 1.9688 1.1953 2.2617l8.2617 2.5469c0.17969 0.058594 0.35938 0.082031 0.53516 0.082031 0.77734 0 1.4922-0.5 1.7344-1.2773 0.29688-0.95312-0.24219-1.9688-1.1953-2.2617l-6.6445-2.0508c5.2891-0.60156 10.477 1.7461 13.414 6.1992l8.168 12.383-1.3633 0.89453c-1.2422 0.8125-2.0938 2.0625-2.3945 3.5195-0.30078 1.457-0.019532 2.9414 0.80078 4.1758l4.7852 7.2539c0.34375 0.53906 0.92188 0.82422 1.5156 0.82422 0.33984 0 0.6875-0.09375 0.99609-0.29687 0.83594-0.55078 1.0703-1.668 0.51562-2.5039l-4.7891-7.2578c-0.28125-0.42969-0.38281-0.94531-0.27344-1.457 0.10547-0.50781 0.40234-0.94531 0.83203-1.2266l2.4648-1.6133c0.16016-0.046875 0.31641-0.11719 0.46094-0.21484 0.10938-0.070312 0.17969-0.17578 0.26562-0.26562l1.2109-0.79297c0.42969-0.28125 0.94922-0.38281 1.4609-0.27344 0.51172 0.10547 0.94922 0.39844 1.2344 0.82812l5.6094 8.5c0.54688 0.83203 1.6758 1.0664 2.5156 0.51562 0.83594-0.55078 1.0703-1.6719 0.51562-2.5039z"/>
  <path d="m82.938 48.938c2.5 0 4.5352-2.0273 4.5352-4.5195v-16.32c0-2.4922-2.0352-4.5195-4.5352-4.5195l-28.867-0.003906c-2.5 0-4.5352 2.0273-4.5352 4.5195v16.32c0 2.4922 2.0352 4.5195 4.5352 4.5195zm-7.2266-21.742-11.508 18.129-6.207-0.003907 11.508-18.129zm8.1328 0.90234v16.32c0 0.48828-0.41406 0.90234-0.90625 0.90234h-14.438l11.508-18.129h2.9336c0.48828 0.003906 0.90234 0.41406 0.90234 0.90625zm-30.68 0c0-0.49219 0.41406-0.90234 0.90625-0.90234h11.137l-11.461 18.059c-0.33594-0.13281-0.58203-0.46094-0.58203-0.83594z"/>
  <path d="m43.555 80.273c0.77344 0 1.4922-0.5 1.7344-1.2734l2.5508-8.2266c0.29688-0.95313-0.23828-1.9688-1.1953-2.2617-0.96875-0.30078-1.9766 0.23828-2.2695 1.1953l-2.5547 8.2266c-0.29687 0.95312 0.23828 1.9688 1.1992 2.2617 0.17578 0.050782 0.35547 0.078126 0.53516 0.078126z"/>
  <path d="m39.762 90.676c-0.95703-0.29297-1.9727 0.24219-2.2695 1.1953l-2.5508 8.2266c-0.29297 0.95312 0.24219 1.9688 1.1992 2.2617 0.17969 0.054687 0.35938 0.082031 0.53516 0.082031 0.77344 0 1.4922-0.5 1.7344-1.2734l2.5508-8.2266c0.29297-0.95703-0.24219-1.9688-1.1992-2.2656z"/>
  <path d="m33.855 85.004c0.17969 0.054688 0.35938 0.082032 0.53906 0.082032 0.77344 0 1.4922-0.5 1.7344-1.2773 0.29688-0.95312-0.23828-1.9688-1.1992-2.2617l-8.2617-2.543c-0.96094-0.30469-1.9727 0.23828-2.2695 1.1914-0.29688 0.95313 0.23828 1.9688 1.1992 2.2617z"/>
  <path d="m46.41 91.043c-0.46875-0.87891-1.5625-1.2227-2.4531-0.75391-0.88672 0.46484-1.2266 1.5625-0.75781 2.4453l4.0352 7.6172c0.32422 0.61328 0.95312 0.96484 1.6055 0.96484 0.28516 0 0.57422-0.070312 0.84766-0.21094 0.88672-0.46484 1.2266-1.5625 0.75781-2.4453z"/>
  <path d="m36.367 79.824c0.32422 0.61328 0.95703 0.96484 1.6094 0.96484 0.28516 0 0.57422-0.070312 0.84375-0.21094 0.88672-0.46484 1.2266-1.5586 0.75781-2.4453l-4.0312-7.6211c-0.46875-0.87891-1.5625-1.2227-2.4531-0.75391-0.88672 0.46484-1.2266 1.5586-0.76172 2.4453z"/>
  <path d="m36.516 87.996c-0.46484-0.87891-1.5664-1.2227-2.4531-0.75391l-7.6445 4.0156c-0.88672 0.46484-1.2266 1.5586-0.75781 2.4453 0.32422 0.61328 0.95312 0.96484 1.6055 0.96484 0.28516 0 0.57422-0.070313 0.84375-0.21094l7.6445-4.0156c0.89062-0.46875 1.2305-1.5625 0.76172-2.4453z"/>
  <path d="m98.148 28.949h-1.0703v-4.6211c0-9.8828-8.0703-17.93-17.992-17.93h-21.152c-9.9219 0-17.996 8.043-17.996 17.93v4.6211h-1.082c-3.0508 0-5.5352 2.4727-5.5352 5.5117v9.2578c0 3.0391 2.4844 5.5156 5.5352 5.5156h1.082v15.363c0 1 0.8125 1.8086 1.8164 1.8086s1.8164-0.80859 1.8164-1.8086v-40.27c0-7.8906 6.4453-14.312 14.363-14.312h21.152c7.9219 0 14.363 6.4219 14.363 14.312v6.3711c0 0.019531-0.011719 0.039062-0.011719 0.058593v16.668c0 0.023438 0.011719 0.039063 0.011719 0.058594v17.113c0 7.8906-6.4414 14.312-14.363 14.312l-13.371 0.003906c-1 0-1.8125 0.80859-1.8125 1.8086s0.8125 1.8086 1.8125 1.8086h13.371c9.9219 0 17.992-8.043 17.992-17.926v-15.371h1.0703c3.0547 0 5.5312-2.4727 5.5312-5.5156v-9.2578c0-3.0391-2.4805-5.5117-5.5312-5.5117zm-59.289 16.668c-1.0508 0-1.9062-0.85156-1.9062-1.8945v-9.2578c0-1.043 0.85547-1.8945 1.9062-1.8945h1.082v13.047zm61.191-1.8945c0 1.0469-0.85547 1.8945-1.9023 1.8945h-1.0703v-13.051h1.0703c1.0469 0 1.9023 0.85156 1.9023 1.8945z"/>
 </g>
</svg>
