<?xml version="1.0" encoding="UTF-8"?>
<svg width="128pt" height="128pt" version="1.1" viewBox="0 0 117 128" xmlns="http://www.w3.org/2000/svg">
 <path d="m32.129 101.89c-0.27344-0.14844-0.70312-0.38281-0.90625-0.54297 0.035156-0.24609 0.16797-0.6875 0.25-0.96875 0.33203-1.1016 0.74609-2.4727-0.21875-3.4336-0.96484-0.96484-2.332-0.55078-3.4336-0.21875-0.28125 0.085938-0.72266 0.21875-0.96875 0.25-0.16016-0.19922-0.39453-0.62891-0.53906-0.90234-0.53906-0.99219-1.207-2.2266-2.5312-2.2266s-1.9961 1.2344-2.5312 2.2266c-0.14844 0.27344-0.37891 0.70312-0.53906 0.90234-0.24609-0.035156-0.6875-0.16797-0.96875-0.25-1.0977-0.33203-2.4727-0.74609-3.4336 0.21875-0.96094 0.96094-0.55078 2.332-0.21875 3.4336 0.085937 0.28125 0.21875 0.72266 0.25 0.96875-0.19922 0.16016-0.63281 0.39453-0.90625 0.54297-0.98828 0.53516-2.2227 1.2031-2.2227 2.5273s1.2344 1.9961 2.2266 2.5312c0.27344 0.14844 0.70312 0.38281 0.90625 0.54297-0.035156 0.24609-0.16797 0.6875-0.25 0.96875-0.33203 1.1016-0.74609 2.4688 0.21484 3.4336 0.96484 0.96484 2.3359 0.55078 3.4336 0.21875 0.28125-0.085937 0.72266-0.21875 0.96875-0.25 0.16016 0.19922 0.39453 0.62891 0.53906 0.90234 0.53906 0.99219 1.207 2.2266 2.5312 2.2266s1.9922-1.2344 2.5312-2.2227c0.14844-0.27344 0.38281-0.70312 0.54297-0.90625 0.24609 0.035157 0.6875 0.16797 0.96875 0.25 1.1055 0.33203 2.4766 0.74609 3.4336-0.21875 0.96094-0.96094 0.55078-2.332 0.21875-3.4336-0.085937-0.28125-0.21875-0.72266-0.25-0.96875 0.19922-0.16016 0.63281-0.39453 0.90625-0.54297 0.98828-0.53516 2.2227-1.2031 2.2227-2.5273 0-1.3281-1.2344-1.9961-2.2266-2.5312zm-1.2188 2.8086c-0.85156 0.46094-1.7305 0.9375-2.0898 1.8086-0.35156 0.84766-0.070312 1.7852 0.20313 2.6914 0.054687 0.18359 0.12891 0.42578 0.1875 0.64844-0.22266-0.054687-0.46484-0.12891-0.64844-0.1875-0.90625-0.27344-1.8438-0.55859-2.6914-0.20312-0.87109 0.35938-1.3477 1.2383-1.8047 2.0898-0.078125 0.14062-0.17969 0.32812-0.28125 0.50391-0.10156-0.17578-0.20312-0.35938-0.28125-0.50391-0.46094-0.85156-0.9375-1.7305-1.8047-2.0898-0.28516-0.11719-0.57422-0.16406-0.875-0.16406-0.59375 0-1.2109 0.1875-1.8164 0.36719-0.18359 0.054688-0.42187 0.12891-0.64453 0.1875 0.054688-0.22266 0.12891-0.46484 0.1875-0.64844 0.27344-0.90625 0.55469-1.8438 0.20312-2.6914-0.35938-0.87109-1.2383-1.3477-2.0898-1.8086-0.14062-0.078125-0.32812-0.17969-0.5-0.27734 0.17188-0.10156 0.35938-0.20312 0.5-0.28125 0.85156-0.46094 1.7305-0.9375 2.0898-1.8086 0.35156-0.84766 0.070313-1.7852-0.20312-2.6914-0.054687-0.18359-0.12891-0.42578-0.1875-0.64844 0.22266 0.054687 0.46484 0.12891 0.64453 0.1875 0.90625 0.27344 1.8438 0.55469 2.6914 0.20312 0.87109-0.35937 1.3477-1.2383 1.8047-2.0898 0.078125-0.14062 0.17969-0.33203 0.28125-0.50391 0.10156 0.17188 0.20312 0.35938 0.28125 0.50391 0.46094 0.85156 0.9375 1.7305 1.8047 2.0898 0.84766 0.35156 1.7852 0.070313 2.6914-0.20312 0.18359-0.054688 0.42578-0.12891 0.64844-0.1875-0.054688 0.22266-0.12891 0.46484-0.1875 0.64844-0.27344 0.90625-0.55469 1.8438-0.20313 2.6914 0.35938 0.87109 1.2383 1.3477 2.0898 1.8086 0.14062 0.078125 0.32812 0.17969 0.50391 0.28125-0.17578 0.097656-0.35937 0.19922-0.50391 0.27734zm87.605-90.324-1.1797-1.6484-8.6016 15.543c-3.8477 0.44141-7.7266-0.91016-10.48-3.6641-1.043-1.043-1.8828-2.2266-2.4883-3.5078l-0.007813-0.015625 8.3984-15.168-2.1797 0.003907c-5.3711 0.015625-10.461 2.0781-14.227 5.9219-4.4648 4.5586-5.1484 8.1172-6.2266 12.52-0.55859 2.2852-1.9297 9.0977-1.9297 9.0977-0.92188 3-2.0781 4.8555-5.3398 8.5664l-38.332 38.332c-2.8008 2.6445-5.3086 4.2031-8.6328 5.3789 0 0-4.9922 1.6797-6.7031 2.1328-3.1875 0.85156-6.2227 2.3633-8.6055 4.7461-6.5078 6.5078-6.5078 17.098 0 23.609 3.1523 3.1523 7.3438 4.8867 11.805 4.8867 4.4609 0 8.6523-1.7344 11.805-4.8867 2.3789-2.3789 3.9922-5.6016 4.8125-8.5234 0.5-1.7773 2.0898-6.8516 2.0898-6.8516 0.97656-2.7734 2.7695-5.6953 5.2539-8.6172l38.355-38.355c2.2578-2.2578 5.3398-4.1953 8.5547-5.2344 2.5898-0.83984 8-1.8633 10.625-2.375 4.1133-0.79688 7.9102-2.6172 11.094-5.8008 7.0273-7.0273 7.9297-18.004 2.1406-26.09zm-84.738 100.04c-2.668 2.668-6.2188 4.1367-9.9961 4.1367s-7.3242-1.4688-9.9961-4.1367c-5.5117-5.5117-5.5117-14.477 0-19.988 2.7539-2.7539 6.375-4.1328 9.9961-4.1328s7.2383 1.3789 9.9961 4.1328c5.5117 5.5078 5.5117 14.477 0 19.988zm60.219-68.25-0.12891 0.039063c-3.8125 1.3438-7.0352 3.3164-9.5742 5.8594l-38.426 38.43c-2.7578 3.2344-4.7109 6.4336-5.7969 9.5156l-0.11719 0.34375c-0.70703-2.8359-2.1523-5.5273-4.3633-7.7383-2.168-2.168-4.832-3.6445-7.7305-4.3711l0.26953-0.09375c3.6523-1.2891 6.5078-3.0625 9.5742-5.9609l38.414-38.41c3.1719-3.6094 4.7812-5.8477 5.9414-9.6328l0.57812-2.332c0.91797 3.168 2.6172 6.1523 5.1094 8.6445 2.5078 2.5078 5.5117 4.2109 8.6992 5.1289zm-4.4414-7.5195c-6.8906-6.8906-6.8906-18.102 0-24.992 2.7852-2.7852 6.332-4.5234 10.168-5.0234l-6.832 12.344 0.55469 1.207c0.73828 1.5586 1.75 2.9844 3 4.2344 3.4805 3.4805 8.4531 5.0898 13.309 4.2969l0.61328-0.10156 7.1875-12.984c3.7812 6.832 2.6562 15.387-2.9844 21.027-6.9023 6.8945-18.117 6.8867-25.016-0.007813zm-29.395 26.637v7.6797c0 0.70703-0.57031 1.2812-1.2812 1.2812-0.70703 0-1.2812-0.57031-1.2812-1.2812v-7.6797c0-0.70703 0.57031-1.2812 1.2812-1.2812 0.70703 0 1.2812 0.57031 1.2812 1.2812zm10.238-10.242v7.6797c0 0.70703-0.57031 1.2812-1.2812 1.2812-0.70703 0-1.2812-0.57422-1.2812-1.2812v-7.6797c0-0.70703 0.57031-1.2812 1.2812-1.2812 0.71094 0.003907 1.2812 0.57422 1.2812 1.2812zm-5.1172 5.1211v7.6797c0 0.70703-0.57031 1.2812-1.2812 1.2812-0.70703 0-1.2812-0.57031-1.2812-1.2812v-7.6797c0-0.70703 0.57031-1.2812 1.2812-1.2812 0.70703 0 1.2812 0.57422 1.2812 1.2812z" fill="#541212"/>
</svg>
