<?xml version="1.0" standalone="no"?>
<!DOCTYPE svg PUBLIC "-//W3C//DTD SVG 20010904//EN"
 "http://www.w3.org/TR/2001/REC-SVG-20010904/DTD/svg10.dtd">
<svg version="1.0" xmlns="http://www.w3.org/2000/svg"
 width="78.000000pt" height="78.000000pt" viewBox="0 0 78.000000 78.000000"
 preserveAspectRatio="xMidYMid meet">
<metadata>
Created by potrace 1.14, written by Peter Selinger 2001-2017
</metadata>
<g transform="translate(0.000000,78.000000) scale(0.100000,-0.100000)"
fill="#000000" stroke="none">
<path d="M290 682 c-223 -89 -245 -100 -245 -122 0 -25 1 -25 90 -34 102 -11
140 -18 153 -28 9 -8 12 -71 12 -254 l0 -244 33 0 c30 0 34 4 69 78 132 277
158 332 158 342 0 5 5 10 10 10 6 0 10 4 10 10 0 8 74 161 137 283 12 23 22
45 22 50 1 4 -45 7 -101 7 l-103 0 -245 -98z"/>
</g>
</svg>
